<svg width="360" height="97" viewBox="0 0 360 97" fill="none" xmlns="http://www.w3.org/2000/svg">
	<g style="mix-blend-mode:hard-light" filter="url(#filter0_f_219_1198)">
		<ellipse cx="180" cy="48.3673" rx="108" ry="28.8" fill="#128DFF" fill-opacity="0.2" />
	</g>
	<g style="mix-blend-mode:hard-light" filter="url(#filter1_f_219_1198)">
		<rect x="91.5438" y="25.9111" width="176.913" height="44.9125" rx="22.4562" stroke="#0094FF" stroke-width="3.0875" />
	</g>
	<g style="mix-blend-mode:hard-light" filter="url(#filter2_f_219_1198)">
		<rect x="92.0187" y="26.3861" width="175.962" height="43.9625" rx="21.9813" stroke="#0094FF" stroke-width="4.0375" />
	</g>
	<g style="mix-blend-mode:hard-light" filter="url(#filter3_ddi_219_1198)">
		<rect x="91.5438" y="25.9111" width="176.913" height="44.9125" rx="22.4562" stroke="#00B3FF" stroke-opacity="0.2" stroke-width="3.0875" />
	</g>
	<g filter="url(#filter4_f_219_1198)">
		<rect x="90.95" y="25.3173" width="178.1" height="46.1" rx="23.05" stroke="#82D9FF" stroke-width="1.9" />
	</g>
	<g filter="url(#filter5_f_219_1198)">
		<rect x="90.475" y="24.8423" width="179.05" height="47.05" rx="23.525" stroke="white" stroke-width="0.95" />
	</g>
	<path d="M128.059 47.5841C128.215 46.0997 128.475 44.9832 128.84 44.2345C129.536 42.7892 130.575 41.7638 131.955 41.1583C133.186 40.618 134.523 40.3478 135.969 40.3478C138.391 40.3478 140.158 41.0118 141.271 42.34C141.942 43.1277 142.329 44.1075 142.434 45.2794L142.521 46.1974C142.411 46.3016 141.711 46.3536 140.422 46.3536L138.869 46.3341H138.742L137.893 46.3146L137.658 46.3243H137.463C137.281 46.3243 137.141 46.0574 137.043 45.5236C136.952 44.9897 136.809 44.6381 136.613 44.4689C136.424 44.2931 136.203 44.2052 135.949 44.2052C135.695 44.2052 135.471 44.2508 135.275 44.3419C135.087 44.4331 134.93 44.5437 134.807 44.674C134.683 44.7976 134.579 44.9767 134.494 45.2111C134.338 45.6147 134.243 46.0444 134.211 46.5001C134.178 46.9493 134.162 47.4539 134.162 48.0138V48.2482L134.123 49.2345C134.123 51.0314 134.631 51.9493 135.646 51.9884C135.907 51.9884 136.089 51.9428 136.193 51.8517C136.473 51.6043 136.717 51.1062 136.926 50.3575C136.971 50.2013 137.027 50.0743 137.092 49.9767H137.463L137.912 49.9865H139.494L139.973 49.9767L140.9 49.9865H141.467L142.043 49.9962H142.434C142.512 50.0027 142.567 50.0711 142.6 50.2013L142.57 50.5236C142.512 51.2918 142.333 51.9884 142.033 52.6134C141.48 53.7592 140.607 54.6121 139.416 55.172C138.231 55.7254 136.929 56.0021 135.51 56.0021C133.029 56.0021 131.167 55.2697 129.924 53.8048C128.68 52.34 128.059 50.2664 128.059 47.5841ZM148.732 47.9454C148.732 47.9519 148.729 47.9682 148.723 47.9943V48.0236C148.697 48.297 148.684 48.603 148.684 48.9415C148.684 49.2801 148.71 49.6381 148.762 50.0157C148.82 50.3934 148.911 50.771 149.035 51.1486C149.165 51.5262 149.364 51.8322 149.631 52.0665C149.917 52.3139 150.236 52.4376 150.588 52.4376C150.946 52.4376 151.245 52.3888 151.486 52.2911C151.734 52.187 151.939 52.0568 152.102 51.9005C152.271 51.7443 152.417 51.5327 152.541 51.2657C152.854 50.5561 153.01 49.4559 153.01 47.965C153.01 46.448 152.834 45.3868 152.482 44.7814C152.137 44.1694 151.613 43.8634 150.91 43.8634C150.559 43.8634 150.249 43.948 149.982 44.1173C149.722 44.2866 149.523 44.4624 149.387 44.6447C149.257 44.8269 149.12 45.2143 148.977 45.8068C148.84 46.3992 148.771 46.9461 148.771 47.4474L148.732 47.9454ZM143.117 48.0236L143.137 47.8087C143.215 46.9949 143.319 46.2755 143.449 45.6505C143.579 45.019 143.791 44.4298 144.084 43.8829C144.781 42.6785 145.751 41.767 146.994 41.1486C148.244 40.5236 149.589 40.2111 151.027 40.2111C152.473 40.2111 153.785 40.5008 154.963 41.0802C155.666 41.4253 156.216 41.8615 156.613 42.3888C157.375 43.3393 157.876 44.215 158.117 45.0157C158.358 45.8165 158.479 46.741 158.479 47.7892C158.479 50.1199 157.997 51.8973 157.033 53.1212L156.584 53.7169C155.979 54.42 155.122 54.9637 154.016 55.3478C152.909 55.7254 151.812 55.9207 150.725 55.9337C148.863 55.9337 147.336 55.5431 146.145 54.7618C144.126 53.4532 143.117 51.2072 143.117 48.0236ZM174.738 48.5314L174.729 49.1857V52.799L174.748 54.5177V55.006L174.758 55.465C174.719 55.517 174.559 55.5431 174.279 55.5431H174.025L170.959 55.5822C169.657 55.5822 168.687 55.5789 168.049 55.5724C167.951 55.4682 167.596 54.521 166.984 52.7306L165.119 47.7794L164.768 47.8282L164.758 48.8243V51.4708L164.797 54.1173V55.2111C164.797 55.504 164.732 55.657 164.602 55.67C163.957 55.6505 163.342 55.6407 162.756 55.6407H162.453L160.979 55.6798H160.783L160.08 55.6993L160.051 55.6798C159.836 55.478 159.729 55.3315 159.729 55.2404V55.0646L159.738 54.8693L159.787 51.0607C159.787 46.881 159.826 43.7202 159.904 41.5782L159.924 40.7677C159.924 40.7091 162.167 40.657 166.652 40.6115C166.691 40.6375 166.75 40.7807 166.828 41.0411V41.0118L166.887 41.2072C167.368 42.5874 167.954 44.1726 168.645 45.963C169.335 47.7469 169.686 48.6583 169.699 48.6974L170.031 48.6779L170.07 40.7189C170.07 40.6668 170.546 40.6407 171.496 40.6407L173.947 40.6896H174.67C174.715 42.8445 174.738 45.4585 174.738 48.5314ZM191.613 48.5314L191.604 49.1857V52.799L191.623 54.5177V55.006L191.633 55.465C191.594 55.517 191.434 55.5431 191.154 55.5431H190.9L187.834 55.5822C186.532 55.5822 185.562 55.5789 184.924 55.5724C184.826 55.4682 184.471 54.521 183.859 52.7306L181.994 47.7794L181.643 47.8282L181.633 48.8243V51.4708L181.672 54.1173V55.2111C181.672 55.504 181.607 55.657 181.477 55.67C180.832 55.6505 180.217 55.6407 179.631 55.6407H179.328L177.854 55.6798H177.658L176.955 55.6993L176.926 55.6798C176.711 55.478 176.604 55.3315 176.604 55.2404V55.0646L176.613 54.8693L176.662 51.0607C176.662 46.881 176.701 43.7202 176.779 41.5782L176.799 40.7677C176.799 40.7091 179.042 40.657 183.527 40.6115C183.566 40.6375 183.625 40.7807 183.703 41.0411V41.0118L183.762 41.2072C184.243 42.5874 184.829 44.1726 185.52 45.963C186.21 47.7469 186.561 48.6583 186.574 48.6974L186.906 48.6779L186.945 40.7189C186.945 40.6668 187.421 40.6407 188.371 40.6407L190.822 40.6896H191.545C191.59 42.8445 191.613 45.4585 191.613 48.5314ZM193.713 43.2775L193.664 40.7091C193.671 40.7091 193.693 40.7189 193.732 40.7384C198.68 40.6538 202.408 40.6082 204.914 40.6017C204.94 40.6147 204.96 40.6342 204.973 40.6603V43.4142C204.973 43.6811 204.966 43.8992 204.953 44.0685C204.921 44.1726 204.729 44.2247 204.377 44.2247H204.309C202.733 44.2247 201.092 44.1987 199.387 44.1466C199.387 44.2052 199.377 44.3094 199.357 44.4591C199.344 44.6088 199.335 44.7163 199.328 44.7814L199.279 45.1525C199.247 45.3999 199.224 45.8295 199.211 46.4415L202.238 46.3732C202.759 46.3601 203.137 46.3536 203.371 46.3536H203.527C203.924 46.3536 204.185 46.3667 204.309 46.3927C204.432 46.4122 204.494 46.4773 204.494 46.588L204.484 46.6661V46.9005L204.533 49.4103L204.523 49.42V49.4103C202.544 49.5079 200.962 49.5568 199.777 49.5568H199.318V51.92L204.621 51.754C204.914 51.754 205.1 51.7963 205.178 51.881C205.171 52.0503 205.168 52.2911 205.168 52.6036L205.236 55.2599C205.236 55.4226 205.165 55.517 205.021 55.5431L201.779 55.5138C201.141 55.5138 199.872 55.5366 197.971 55.5822L196.369 55.6212C195.236 55.6603 194.396 55.6798 193.85 55.6798L193.82 55.6603H193.83C193.765 55.5952 193.703 55.5333 193.645 55.4747V55.1329L193.703 44.6935L193.713 43.2775ZM205.832 47.5841C205.988 46.0997 206.249 44.9832 206.613 44.2345C207.31 42.7892 208.348 41.7638 209.729 41.1583C210.959 40.618 212.297 40.3478 213.742 40.3478C216.164 40.3478 217.932 41.0118 219.045 42.34C219.715 43.1277 220.103 44.1075 220.207 45.2794L220.295 46.1974C220.184 46.3016 219.484 46.3536 218.195 46.3536L216.643 46.3341H216.516L215.666 46.3146L215.432 46.3243H215.236C215.054 46.3243 214.914 46.0574 214.816 45.5236C214.725 44.9897 214.582 44.6381 214.387 44.4689C214.198 44.2931 213.977 44.2052 213.723 44.2052C213.469 44.2052 213.244 44.2508 213.049 44.3419C212.86 44.4331 212.704 44.5437 212.58 44.674C212.456 44.7976 212.352 44.9767 212.268 45.2111C212.111 45.6147 212.017 46.0444 211.984 46.5001C211.952 46.9493 211.936 47.4539 211.936 48.0138V48.2482L211.896 49.2345C211.896 51.0314 212.404 51.9493 213.42 51.9884C213.68 51.9884 213.863 51.9428 213.967 51.8517C214.247 51.6043 214.491 51.1062 214.699 50.3575C214.745 50.2013 214.8 50.0743 214.865 49.9767H215.236L215.686 49.9865H217.268L217.746 49.9767L218.674 49.9865H219.24L219.816 49.9962H220.207C220.285 50.0027 220.34 50.0711 220.373 50.2013L220.344 50.5236C220.285 51.2918 220.106 51.9884 219.807 52.6134C219.253 53.7592 218.381 54.6121 217.189 55.172C216.005 55.7254 214.702 56.0021 213.283 56.0021C210.803 56.0021 208.941 55.2697 207.697 53.8048C206.454 52.34 205.832 50.2664 205.832 47.5841ZM233.605 44.2833C233.605 44.4982 233.583 44.6056 233.537 44.6056C233.537 44.6056 232.359 44.5958 230.002 44.5763C229.989 45.2078 229.982 46.1941 229.982 47.5353C229.982 48.8764 229.986 49.8074 229.992 50.3282L230.031 55.504C229.999 55.5952 229.934 55.644 229.836 55.6505L227.775 55.6212L227.766 55.631L227.121 55.6212H225.334C224.852 55.6212 224.491 55.6245 224.25 55.631L224.084 55.4845C224.077 55.478 224.035 55.4259 223.957 55.3282C223.957 54.7553 223.98 53.4825 224.025 51.5099L224.133 46.3146L224.113 46.0704C224.068 45.4259 224.022 45.045 223.977 44.9279C223.938 44.8042 223.856 44.7391 223.732 44.7325C223.609 44.7195 223.518 44.713 223.459 44.713L223.068 44.7325L220.646 44.6935C220.562 44.5242 220.52 44.1434 220.52 43.5509L220.539 42.6915V42.4279C220.533 41.3862 220.523 40.8295 220.51 40.7579C220.523 40.7579 220.549 40.7644 220.588 40.7775L233.02 40.67C233.273 40.67 233.433 40.6896 233.498 40.7286C233.563 40.7612 233.596 40.8263 233.596 40.924V43.5021L233.605 44.2833Z" fill="white" />
	<path d="M128.059 47.5841C128.215 46.0997 128.475 44.9832 128.84 44.2345C129.536 42.7892 130.575 41.7638 131.955 41.1583C133.186 40.618 134.523 40.3478 135.969 40.3478C138.391 40.3478 140.158 41.0118 141.271 42.34C141.942 43.1277 142.329 44.1075 142.434 45.2794L142.521 46.1974C142.411 46.3016 141.711 46.3536 140.422 46.3536L138.869 46.3341H138.742L137.893 46.3146L137.658 46.3243H137.463C137.281 46.3243 137.141 46.0574 137.043 45.5236C136.952 44.9897 136.809 44.6381 136.613 44.4689C136.424 44.2931 136.203 44.2052 135.949 44.2052C135.695 44.2052 135.471 44.2508 135.275 44.3419C135.087 44.4331 134.93 44.5437 134.807 44.674C134.683 44.7976 134.579 44.9767 134.494 45.2111C134.338 45.6147 134.243 46.0444 134.211 46.5001C134.178 46.9493 134.162 47.4539 134.162 48.0138V48.2482L134.123 49.2345C134.123 51.0314 134.631 51.9493 135.646 51.9884C135.907 51.9884 136.089 51.9428 136.193 51.8517C136.473 51.6043 136.717 51.1062 136.926 50.3575C136.971 50.2013 137.027 50.0743 137.092 49.9767H137.463L137.912 49.9865H139.494L139.973 49.9767L140.9 49.9865H141.467L142.043 49.9962H142.434C142.512 50.0027 142.567 50.0711 142.6 50.2013L142.57 50.5236C142.512 51.2918 142.333 51.9884 142.033 52.6134C141.48 53.7592 140.607 54.6121 139.416 55.172C138.231 55.7254 136.929 56.0021 135.51 56.0021C133.029 56.0021 131.167 55.2697 129.924 53.8048C128.68 52.34 128.059 50.2664 128.059 47.5841ZM148.732 47.9454C148.732 47.9519 148.729 47.9682 148.723 47.9943V48.0236C148.697 48.297 148.684 48.603 148.684 48.9415C148.684 49.2801 148.71 49.6381 148.762 50.0157C148.82 50.3934 148.911 50.771 149.035 51.1486C149.165 51.5262 149.364 51.8322 149.631 52.0665C149.917 52.3139 150.236 52.4376 150.588 52.4376C150.946 52.4376 151.245 52.3888 151.486 52.2911C151.734 52.187 151.939 52.0568 152.102 51.9005C152.271 51.7443 152.417 51.5327 152.541 51.2657C152.854 50.5561 153.01 49.4559 153.01 47.965C153.01 46.448 152.834 45.3868 152.482 44.7814C152.137 44.1694 151.613 43.8634 150.91 43.8634C150.559 43.8634 150.249 43.948 149.982 44.1173C149.722 44.2866 149.523 44.4624 149.387 44.6447C149.257 44.8269 149.12 45.2143 148.977 45.8068C148.84 46.3992 148.771 46.9461 148.771 47.4474L148.732 47.9454ZM143.117 48.0236L143.137 47.8087C143.215 46.9949 143.319 46.2755 143.449 45.6505C143.579 45.019 143.791 44.4298 144.084 43.8829C144.781 42.6785 145.751 41.767 146.994 41.1486C148.244 40.5236 149.589 40.2111 151.027 40.2111C152.473 40.2111 153.785 40.5008 154.963 41.0802C155.666 41.4253 156.216 41.8615 156.613 42.3888C157.375 43.3393 157.876 44.215 158.117 45.0157C158.358 45.8165 158.479 46.741 158.479 47.7892C158.479 50.1199 157.997 51.8973 157.033 53.1212L156.584 53.7169C155.979 54.42 155.122 54.9637 154.016 55.3478C152.909 55.7254 151.812 55.9207 150.725 55.9337C148.863 55.9337 147.336 55.5431 146.145 54.7618C144.126 53.4532 143.117 51.2072 143.117 48.0236ZM174.738 48.5314L174.729 49.1857V52.799L174.748 54.5177V55.006L174.758 55.465C174.719 55.517 174.559 55.5431 174.279 55.5431H174.025L170.959 55.5822C169.657 55.5822 168.687 55.5789 168.049 55.5724C167.951 55.4682 167.596 54.521 166.984 52.7306L165.119 47.7794L164.768 47.8282L164.758 48.8243V51.4708L164.797 54.1173V55.2111C164.797 55.504 164.732 55.657 164.602 55.67C163.957 55.6505 163.342 55.6407 162.756 55.6407H162.453L160.979 55.6798H160.783L160.08 55.6993L160.051 55.6798C159.836 55.478 159.729 55.3315 159.729 55.2404V55.0646L159.738 54.8693L159.787 51.0607C159.787 46.881 159.826 43.7202 159.904 41.5782L159.924 40.7677C159.924 40.7091 162.167 40.657 166.652 40.6115C166.691 40.6375 166.75 40.7807 166.828 41.0411V41.0118L166.887 41.2072C167.368 42.5874 167.954 44.1726 168.645 45.963C169.335 47.7469 169.686 48.6583 169.699 48.6974L170.031 48.6779L170.07 40.7189C170.07 40.6668 170.546 40.6407 171.496 40.6407L173.947 40.6896H174.67C174.715 42.8445 174.738 45.4585 174.738 48.5314ZM191.613 48.5314L191.604 49.1857V52.799L191.623 54.5177V55.006L191.633 55.465C191.594 55.517 191.434 55.5431 191.154 55.5431H190.9L187.834 55.5822C186.532 55.5822 185.562 55.5789 184.924 55.5724C184.826 55.4682 184.471 54.521 183.859 52.7306L181.994 47.7794L181.643 47.8282L181.633 48.8243V51.4708L181.672 54.1173V55.2111C181.672 55.504 181.607 55.657 181.477 55.67C180.832 55.6505 180.217 55.6407 179.631 55.6407H179.328L177.854 55.6798H177.658L176.955 55.6993L176.926 55.6798C176.711 55.478 176.604 55.3315 176.604 55.2404V55.0646L176.613 54.8693L176.662 51.0607C176.662 46.881 176.701 43.7202 176.779 41.5782L176.799 40.7677C176.799 40.7091 179.042 40.657 183.527 40.6115C183.566 40.6375 183.625 40.7807 183.703 41.0411V41.0118L183.762 41.2072C184.243 42.5874 184.829 44.1726 185.52 45.963C186.21 47.7469 186.561 48.6583 186.574 48.6974L186.906 48.6779L186.945 40.7189C186.945 40.6668 187.421 40.6407 188.371 40.6407L190.822 40.6896H191.545C191.59 42.8445 191.613 45.4585 191.613 48.5314ZM193.713 43.2775L193.664 40.7091C193.671 40.7091 193.693 40.7189 193.732 40.7384C198.68 40.6538 202.408 40.6082 204.914 40.6017C204.94 40.6147 204.96 40.6342 204.973 40.6603V43.4142C204.973 43.6811 204.966 43.8992 204.953 44.0685C204.921 44.1726 204.729 44.2247 204.377 44.2247H204.309C202.733 44.2247 201.092 44.1987 199.387 44.1466C199.387 44.2052 199.377 44.3094 199.357 44.4591C199.344 44.6088 199.335 44.7163 199.328 44.7814L199.279 45.1525C199.247 45.3999 199.224 45.8295 199.211 46.4415L202.238 46.3732C202.759 46.3601 203.137 46.3536 203.371 46.3536H203.527C203.924 46.3536 204.185 46.3667 204.309 46.3927C204.432 46.4122 204.494 46.4773 204.494 46.588L204.484 46.6661V46.9005L204.533 49.4103L204.523 49.42V49.4103C202.544 49.5079 200.962 49.5568 199.777 49.5568H199.318V51.92L204.621 51.754C204.914 51.754 205.1 51.7963 205.178 51.881C205.171 52.0503 205.168 52.2911 205.168 52.6036L205.236 55.2599C205.236 55.4226 205.165 55.517 205.021 55.5431L201.779 55.5138C201.141 55.5138 199.872 55.5366 197.971 55.5822L196.369 55.6212C195.236 55.6603 194.396 55.6798 193.85 55.6798L193.82 55.6603H193.83C193.765 55.5952 193.703 55.5333 193.645 55.4747V55.1329L193.703 44.6935L193.713 43.2775ZM205.832 47.5841C205.988 46.0997 206.249 44.9832 206.613 44.2345C207.31 42.7892 208.348 41.7638 209.729 41.1583C210.959 40.618 212.297 40.3478 213.742 40.3478C216.164 40.3478 217.932 41.0118 219.045 42.34C219.715 43.1277 220.103 44.1075 220.207 45.2794L220.295 46.1974C220.184 46.3016 219.484 46.3536 218.195 46.3536L216.643 46.3341H216.516L215.666 46.3146L215.432 46.3243H215.236C215.054 46.3243 214.914 46.0574 214.816 45.5236C214.725 44.9897 214.582 44.6381 214.387 44.4689C214.198 44.2931 213.977 44.2052 213.723 44.2052C213.469 44.2052 213.244 44.2508 213.049 44.3419C212.86 44.4331 212.704 44.5437 212.58 44.674C212.456 44.7976 212.352 44.9767 212.268 45.2111C212.111 45.6147 212.017 46.0444 211.984 46.5001C211.952 46.9493 211.936 47.4539 211.936 48.0138V48.2482L211.896 49.2345C211.896 51.0314 212.404 51.9493 213.42 51.9884C213.68 51.9884 213.863 51.9428 213.967 51.8517C214.247 51.6043 214.491 51.1062 214.699 50.3575C214.745 50.2013 214.8 50.0743 214.865 49.9767H215.236L215.686 49.9865H217.268L217.746 49.9767L218.674 49.9865H219.24L219.816 49.9962H220.207C220.285 50.0027 220.34 50.0711 220.373 50.2013L220.344 50.5236C220.285 51.2918 220.106 51.9884 219.807 52.6134C219.253 53.7592 218.381 54.6121 217.189 55.172C216.005 55.7254 214.702 56.0021 213.283 56.0021C210.803 56.0021 208.941 55.2697 207.697 53.8048C206.454 52.34 205.832 50.2664 205.832 47.5841ZM233.605 44.2833C233.605 44.4982 233.583 44.6056 233.537 44.6056C233.537 44.6056 232.359 44.5958 230.002 44.5763C229.989 45.2078 229.982 46.1941 229.982 47.5353C229.982 48.8764 229.986 49.8074 229.992 50.3282L230.031 55.504C229.999 55.5952 229.934 55.644 229.836 55.6505L227.775 55.6212L227.766 55.631L227.121 55.6212H225.334C224.852 55.6212 224.491 55.6245 224.25 55.631L224.084 55.4845C224.077 55.478 224.035 55.4259 223.957 55.3282C223.957 54.7553 223.98 53.4825 224.025 51.5099L224.133 46.3146L224.113 46.0704C224.068 45.4259 224.022 45.045 223.977 44.9279C223.938 44.8042 223.856 44.7391 223.732 44.7325C223.609 44.7195 223.518 44.713 223.459 44.713L223.068 44.7325L220.646 44.6935C220.562 44.5242 220.52 44.1434 220.52 43.5509L220.539 42.6915V42.4279C220.533 41.3862 220.523 40.8295 220.51 40.7579C220.523 40.7579 220.549 40.7644 220.588 40.7775L233.02 40.67C233.273 40.67 233.433 40.6896 233.498 40.7286C233.563 40.7612 233.596 40.8263 233.596 40.924V43.5021L233.605 44.2833Z" fill="white" />
	<defs>
		<filter id="filter0_f_219_1198" x="57.75" y="5.31726" width="244.5" height="86.1" filterUnits="userSpaceOnUse" color-interpolation-filters="sRGB">
			<feFlood flood-opacity="0" result="BackgroundImageFix" />
			<feBlend mode="normal" in="SourceGraphic" in2="BackgroundImageFix" result="shape" />
			<feGaussianBlur stdDeviation="7.125" result="effect1_foregroundBlur_219_1198" />
		</filter>
		<filter id="filter1_f_219_1198" x="75.75" y="10.1173" width="208.5" height="76.5" filterUnits="userSpaceOnUse" color-interpolation-filters="sRGB">
			<feFlood flood-opacity="0" result="BackgroundImageFix" />
			<feBlend mode="normal" in="SourceGraphic" in2="BackgroundImageFix" result="shape" />
			<feGaussianBlur stdDeviation="7.125" result="effect1_foregroundBlur_219_1198" />
		</filter>
		<filter id="filter2_f_219_1198" x="85.25" y="19.6173" width="189.5" height="57.5" filterUnits="userSpaceOnUse" color-interpolation-filters="sRGB">
			<feFlood flood-opacity="0" result="BackgroundImageFix" />
			<feBlend mode="normal" in="SourceGraphic" in2="BackgroundImageFix" result="shape" />
			<feGaussianBlur stdDeviation="2.375" result="effect1_foregroundBlur_219_1198" />
		</filter>
		<filter id="filter3_ddi_219_1198" x="83.825" y="22.9423" width="192.35" height="60.35" filterUnits="userSpaceOnUse" color-interpolation-filters="sRGB">
			<feFlood flood-opacity="0" result="BackgroundImageFix" />
			<feColorMatrix in="SourceAlpha" type="matrix" values="0 0 0 0 0 0 0 0 0 0 0 0 0 0 0 0 0 0 127 0" result="hardAlpha" />
			<feOffset dy="3.0875" />
			<feGaussianBlur stdDeviation="1.1875" />
			<feColorMatrix type="matrix" values="0 0 0 0 0 0 0 0 0 0.051 0 0 0 0 0.082 0 0 0 0.7 0" />
			<feBlend mode="multiply" in2="BackgroundImageFix" result="effect1_dropShadow_219_1198" />
			<feColorMatrix in="SourceAlpha" type="matrix" values="0 0 0 0 0 0 0 0 0 0 0 0 0 0 0 0 0 0 127 0" result="hardAlpha" />
			<feOffset dy="4.75" />
			<feGaussianBlur stdDeviation="3.0875" />
			<feColorMatrix type="matrix" values="0 0 0 0 0 0 0 0 0 0.4 0 0 0 0 1 0 0 0 1 0" />
			<feBlend mode="color-dodge" in2="effect1_dropShadow_219_1198" result="effect2_dropShadow_219_1198" />
			<feBlend mode="normal" in="SourceGraphic" in2="effect2_dropShadow_219_1198" result="shape" />
			<feColorMatrix in="SourceAlpha" type="matrix" values="0 0 0 0 0 0 0 0 0 0 0 0 0 0 0 0 0 0 127 0" result="hardAlpha" />
			<feOffset dx="-0.30875" dy="0.6175" />
			<feGaussianBlur stdDeviation="0.154375" />
			<feComposite in2="hardAlpha" operator="arithmetic" k2="-1" k3="1" />
			<feColorMatrix type="matrix" values="0 0 0 0 1 0 0 0 0 1 0 0 0 0 1 0 0 0 0.5 0" />
			<feBlend mode="normal" in2="shape" result="effect3_innerShadow_219_1198" />
		</filter>
		<filter id="filter4_f_219_1198" x="89.525" y="23.8923" width="180.95" height="48.95" filterUnits="userSpaceOnUse" color-interpolation-filters="sRGB">
			<feFlood flood-opacity="0" result="BackgroundImageFix" />
			<feBlend mode="normal" in="SourceGraphic" in2="BackgroundImageFix" result="shape" />
			<feGaussianBlur stdDeviation="0.2375" result="effect1_foregroundBlur_219_1198" />
		</filter>
		<filter id="filter5_f_219_1198" x="89.6833" y="24.0506" width="180.633" height="48.6333" filterUnits="userSpaceOnUse" color-interpolation-filters="sRGB">
			<feFlood flood-opacity="0" result="BackgroundImageFix" />
			<feBlend mode="normal" in="SourceGraphic" in2="BackgroundImageFix" result="shape" />
			<feGaussianBlur stdDeviation="0.158333" result="effect1_foregroundBlur_219_1198" />
		</filter>
	</defs>
</svg>
