<svg width="97" height="97" viewBox="0 0 97 97" fill="none" xmlns="http://www.w3.org/2000/svg">
	<g style="mix-blend-mode:hard-light" filter="url(#filter0_f_219_1226)">
		<circle cx="48.0088" cy="48.0085" r="28.8051" fill="#128DFF" fill-opacity="0.2" />
	</g>
	<g style="mix-blend-mode:hard-light" filter="url(#filter1_f_219_1226)">
		<circle cx="48.0087" cy="48.0084" r="22.9887" stroke="#0094FF" stroke-width="2.03125" />
	</g>
	<g style="mix-blend-mode:hard-light" filter="url(#filter2_f_219_1226)">
		<circle cx="48.0087" cy="48.0084" r="22.6762" stroke="#0094FF" stroke-width="2.65625" />
	</g>
	<g style="mix-blend-mode:hard-light" filter="url(#filter3_ddi_219_1226)">
		<circle cx="48.0087" cy="48.0084" r="22.9887" stroke="#00B3FF" stroke-opacity="0.2" stroke-width="2.03125" />
	</g>
	<g filter="url(#filter4_f_219_1226)">
		<circle cx="48.0087" cy="48.0084" r="23.3793" stroke="#82D9FF" stroke-width="1.25" />
	</g>
	<g filter="url(#filter5_f_219_1226)">
		<circle cx="48.0087" cy="48.0084" r="23.6918" stroke="white" stroke-width="0.625" />
	</g>
	<g style="mix-blend-mode:hard-light" filter="url(#filter6_f_219_1226)">
		<ellipse rx="15.7257" ry="11.905" transform="matrix(-1 0 0 1 47.9738 48.0066)" fill="#128DFF" fill-opacity="0.2" />
	</g>
	<g style="mix-blend-mode:hard-light" filter="url(#filter7_f_219_1226)">
		<path d="M44.5284 39.6733C44.391 39.3521 44.2065 38.961 44.0262 38.6183C42.3365 38.9317 40.7154 39.4448 39.1973 40.1258C36.3684 44.2937 34.9659 48.9735 35.4506 54.351C37.4956 55.8192 39.4779 56.744 41.4369 57.3706C41.7677 56.8985 42.0752 56.4088 42.3559 55.9024C41.7738 55.6633 41.2117 55.3877 40.6671 55.0697C40.3019 54.8583 40.2963 54.3586 40.6085 54.1215L40.6084 54.1214L40.6184 54.1142C40.7467 54.0217 40.8751 53.9199 41.0056 53.8145L41.0056 53.8144L41.0138 53.8081C41.1594 53.6956 41.3861 53.6385 41.6038 53.7419C45.7104 55.6269 50.2072 55.6274 54.3684 53.7391L54.379 53.7343L54.3899 53.73C54.5596 53.6626 54.7773 53.6728 54.9525 53.8081L54.961 53.8147L54.9691 53.8216C55.0855 53.92 55.2151 54.0186 55.3488 54.1169L55.3489 54.1169L55.355 54.1215C55.6676 54.3589 55.6616 54.8597 55.2949 55.0705L55.2931 55.0716C54.749 55.3813 54.1883 55.6612 53.6036 55.9046C53.8818 56.4104 54.1895 56.8995 54.5242 57.3709C56.4742 56.7443 58.4563 55.8195 60.5013 54.3514C60.9069 49.6884 59.9946 44.9728 56.7591 40.1262C55.2383 39.4426 53.6171 38.9293 51.9275 38.6181C51.7421 38.9625 51.552 39.347 51.4177 39.6692L51.2712 40.0205L50.895 39.9634C48.9704 39.6713 47.0155 39.6711 45.0479 39.9636L44.6762 40.0188L44.5284 39.6733ZM39.0711 40.1822C39.0784 40.1793 39.0857 40.1762 39.093 40.1728L38.929 39.8124L38.9211 39.7952L38.8913 39.7295L38.9164 39.7928L38.9224 39.8079L39.0711 40.1822ZM41.1542 54.226L41.1571 54.2277C41.1561 54.2271 41.1552 54.2265 41.1542 54.226ZM55.1637 48.9966C55.1637 50.6613 53.9294 52.108 52.3194 52.108C50.6912 52.108 49.4793 50.6601 49.4778 48.9998C49.4572 47.3389 50.6833 45.8851 52.3194 45.8851C53.951 45.8851 55.1637 47.3345 55.1637 48.9966ZM46.4529 48.9966C46.4529 50.6609 45.2189 52.108 43.6112 52.108C41.9708 52.108 40.7714 50.6588 40.7696 49.0002C40.7462 47.3378 41.9761 45.8851 43.6112 45.8851C45.2436 45.8851 46.4529 47.3353 46.4529 48.9966Z" stroke="#0094FF" stroke-width="0.974215" />
	</g>
	<g style="mix-blend-mode:hard-light" filter="url(#filter8_f_219_1226)">
		<path d="M44.3906 39.7323C44.2675 39.4444 44.1061 39.0998 43.9446 38.7861C42.3204 39.0963 40.761 39.5922 39.2974 40.2452C36.5145 44.3601 35.1317 48.9726 35.5938 54.2692C37.5686 55.6782 39.4839 56.5781 41.3773 57.1939C41.6496 56.7998 41.9054 56.3936 42.1428 55.9758C41.6102 55.7497 41.0938 55.4924 40.5919 55.1993C40.1303 54.9322 40.1239 54.3013 40.5179 54.0021L40.5243 53.9973L40.5308 53.9926C40.6556 53.9027 40.7813 53.803 40.9115 53.6979L40.9114 53.6978L40.9221 53.6895C41.1049 53.5483 41.391 53.4754 41.6672 53.6061C45.7337 55.4724 50.1847 55.473 54.3065 53.6027L54.3204 53.5964L54.3345 53.5907C54.548 53.5059 54.8226 53.5184 55.0441 53.6895L55.0552 53.6981L55.0659 53.7071C55.1785 53.8023 55.3049 53.8986 55.4376 53.9961L55.4376 53.9961L55.4456 54.0021C55.8401 54.3018 55.8331 54.9339 55.3697 55.2005L55.3673 55.2018C54.8665 55.4869 54.3511 55.7472 53.8159 55.9775C54.0516 56.3949 54.3079 56.8007 54.5831 57.1943C56.468 56.5785 58.3831 55.6786 60.3579 54.2698C60.7448 49.6723 59.8384 45.0254 56.6583 40.2452C55.192 39.5898 53.6322 39.0936 52.008 38.7856C51.8412 39.1007 51.6756 39.4399 51.556 39.7269L51.3645 40.1862L50.8725 40.1116C48.963 39.8218 47.0231 39.8215 45.0699 40.1118L44.5839 40.1841L44.3906 39.7323ZM39.1264 40.3215C39.136 40.3177 39.1455 40.3136 39.155 40.3092L38.929 39.8124L38.9211 39.7952L38.8913 39.7295L38.9164 39.7928L38.9224 39.8079L39.1264 40.3215ZM41.2289 54.096L41.2327 54.0982L41.2289 54.096L41.2289 54.096ZM55.3136 48.9966C55.3136 50.7288 54.0267 52.2579 52.3194 52.2579C50.5933 52.2579 49.3299 50.7272 49.3279 49.0008C49.3069 47.271 50.5864 45.7352 52.3194 45.7352C54.0491 45.7352 55.3136 47.2679 55.3136 48.9966ZM46.6027 48.9966C46.6027 50.7283 45.3163 52.2579 43.6112 52.2579C41.8727 52.2579 40.6222 50.7256 40.6198 49.0015C40.5957 47.2698 41.8795 45.7352 43.6112 45.7352C45.3419 45.7352 46.6027 47.2689 46.6027 48.9966Z" stroke="#0094FF" stroke-width="1.27397" />
	</g>
	<g style="mix-blend-mode:hard-light" filter="url(#filter9_ddi_219_1226)">
		<path d="M44.5284 39.6733C44.391 39.3521 44.2065 38.961 44.0262 38.6183C42.3365 38.9317 40.7154 39.4448 39.1973 40.1258C36.3684 44.2937 34.9659 48.9735 35.4506 54.351C37.4956 55.8192 39.4779 56.744 41.4369 57.3706C41.7677 56.8985 42.0752 56.4088 42.3559 55.9024C41.7738 55.6633 41.2117 55.3877 40.6671 55.0697C40.3019 54.8583 40.2963 54.3586 40.6085 54.1215L40.6084 54.1214L40.6184 54.1142C40.7467 54.0217 40.8751 53.9199 41.0056 53.8145L41.0056 53.8144L41.0138 53.8081C41.1594 53.6956 41.3861 53.6385 41.6038 53.7419C45.7104 55.6269 50.2072 55.6274 54.3684 53.7391L54.379 53.7343L54.3899 53.73C54.5596 53.6626 54.7773 53.6728 54.9525 53.8081L54.961 53.8147L54.9691 53.8216C55.0855 53.92 55.2151 54.0186 55.3488 54.1169L55.3489 54.1169L55.355 54.1215C55.6676 54.3589 55.6616 54.8597 55.2949 55.0705L55.2931 55.0716C54.749 55.3813 54.1883 55.6612 53.6036 55.9046C53.8818 56.4104 54.1895 56.8995 54.5242 57.3709C56.4742 56.7443 58.4563 55.8195 60.5013 54.3514C60.9069 49.6884 59.9946 44.9728 56.7591 40.1262C55.2383 39.4426 53.6171 38.9293 51.9275 38.6181C51.7421 38.9625 51.552 39.347 51.4177 39.6692L51.2712 40.0205L50.895 39.9634C48.9704 39.6713 47.0155 39.6711 45.0479 39.9636L44.6762 40.0188L44.5284 39.6733ZM39.0711 40.1822C39.0784 40.1793 39.0857 40.1762 39.093 40.1728L38.929 39.8124L38.9211 39.7952L38.8913 39.7295L38.9164 39.7928L38.9224 39.8079L39.0711 40.1822ZM41.1542 54.226L41.1571 54.2277C41.1561 54.2271 41.1552 54.2265 41.1542 54.226ZM55.1637 48.9966C55.1637 50.6613 53.9294 52.108 52.3194 52.108C50.6912 52.108 49.4793 50.6601 49.4778 48.9998C49.4572 47.3389 50.6833 45.8851 52.3194 45.8851C53.951 45.8851 55.1637 47.3345 55.1637 48.9966ZM46.4529 48.9966C46.4529 50.6609 45.2189 52.108 43.6112 52.108C41.9708 52.108 40.7714 50.6588 40.7696 49.0002C40.7462 47.3378 41.9761 45.8851 43.6112 45.8851C45.2436 45.8851 46.4529 47.3353 46.4529 48.9966Z" stroke="#00B3FF" stroke-opacity="0.2" stroke-width="0.974215" />
	</g>
	<g filter="url(#filter10_f_219_1226)">
		<mask id="path-11-inside-1_219_1226" fill="white">
			<path fill-rule="evenodd" clip-rule="evenodd" d="M38.8913 39.7295C40.5605 38.97 42.3531 38.4092 44.2252 38.0879C44.2609 38.0797 44.2938 38.0961 44.3129 38.126C44.5432 38.5344 44.7981 39.0653 44.9763 39.4818C46.9909 39.1823 48.9945 39.1823 50.9681 39.4818C51.1462 39.0544 51.4121 38.5344 51.6423 38.126C51.6615 38.0961 51.6944 38.0825 51.7273 38.0879C53.5994 38.4064 55.392 38.9672 57.064 39.7295C57.0777 39.735 57.0914 39.7458 57.0996 39.7595C60.4957 44.8013 61.4277 49.7207 60.9699 54.5775C60.9699 54.602 60.9562 54.6237 60.937 54.6374C58.6949 56.2735 56.524 57.2672 54.3916 57.9233C54.3587 57.9342 54.323 57.9233 54.3011 57.8933C53.7968 57.21 53.3472 56.4886 52.9608 55.7318C52.9388 55.6882 52.9608 55.6338 53.0074 55.6174C53.72 55.3479 54.397 55.0212 55.0521 54.6482C55.1042 54.6183 55.107 54.5448 55.0604 54.5094C54.9233 54.4087 54.7835 54.3025 54.6547 54.1936C54.63 54.1745 54.5971 54.1718 54.5697 54.1827C50.2801 56.1292 45.6341 56.1292 41.3965 54.1827C41.3691 54.1691 41.3362 54.1745 41.3116 54.1936C41.18 54.2998 41.0429 54.4087 40.9031 54.5094C40.8566 54.5448 40.8593 54.6183 40.9114 54.6482C41.5637 55.0294 42.2435 55.3479 42.9561 55.6147C43.0027 55.6338 43.0247 55.6882 43 55.7318C42.608 56.4886 42.1585 57.21 41.6624 57.8933C41.6432 57.9233 41.6048 57.9342 41.572 57.9233C39.4285 57.2672 37.2576 56.2735 35.0155 54.6374C34.9963 54.6237 34.9826 54.602 34.9826 54.5775C34.4344 48.9639 35.8954 44.0853 38.8556 39.7622C38.8639 39.7458 38.8776 39.735 38.8913 39.7295V39.7295ZM52.3194 51.6209C53.6131 51.6209 54.6766 50.4421 54.6766 48.9966C54.6766 47.551 53.6323 46.3722 52.3194 46.3722C50.9982 46.3722 49.9457 47.5591 49.9649 48.9966C49.9649 50.4421 51.0092 51.6209 52.3194 51.6209V51.6209ZM43.6112 51.6209C44.9023 51.6209 45.9658 50.4421 45.9658 48.9966C45.9658 47.551 44.9242 46.3722 43.6112 46.3722C42.2901 46.3722 41.2348 47.5591 41.2567 48.9966C41.2567 50.4421 42.2901 51.6209 43.6112 51.6209Z" />
		</mask>
		<path d="M44.2252 38.0879L44.3592 38.6723L44.343 38.676L44.3266 38.6788L44.2252 38.0879ZM44.3129 38.126L44.8177 37.8026L44.8269 37.8168L44.8352 37.8316L44.3129 38.126ZM44.9763 39.4818L45.0644 40.0748L44.6069 40.1428L44.425 39.7176L44.9763 39.4818ZM50.9681 39.4818L51.5214 39.7124L51.3412 40.1448L50.8781 40.0745L50.9681 39.4818ZM51.6423 38.126L51.1201 37.8316L51.1284 37.8168L51.1375 37.8026L51.6423 38.126ZM51.7273 38.0879L51.8252 37.4964L51.8279 37.4969L51.7273 38.0879ZM57.064 39.7295L56.8427 40.2867L56.8288 40.2812L56.8153 40.275L57.064 39.7295ZM57.0996 39.7595L56.6024 40.0944L56.5941 40.0821L56.5865 40.0695L57.0996 39.7595ZM60.9699 54.5775H60.3704V54.5493L60.3731 54.5212L60.9699 54.5775ZM60.937 54.6374L60.5836 54.153L60.5901 54.1484L60.937 54.6374ZM54.3916 57.9233L54.2031 57.354L54.2153 57.3503L54.3916 57.9233ZM54.3011 57.8933L54.7835 57.5373L54.7848 57.5392L54.3011 57.8933ZM52.9608 55.7318L52.4268 56.0044L52.4253 56.0013L52.9608 55.7318ZM53.0074 55.6174L53.2194 56.1782L53.2126 56.1808L53.2057 56.1832L53.0074 55.6174ZM55.0521 54.6482L55.351 55.168L55.3488 55.1692L55.0521 54.6482ZM55.0604 54.5094L55.4154 54.0263L55.423 54.032L55.0604 54.5094ZM54.6547 54.1936L55.0212 53.7192L55.0316 53.7272L55.0417 53.7357L54.6547 54.1936ZM54.5697 54.1827L54.322 53.6368L54.335 53.6309L54.3484 53.6256L54.5697 54.1827ZM41.3965 54.1827L41.1463 54.7275L41.138 54.7237L41.1299 54.7197L41.3965 54.1827ZM41.3116 54.1936L40.935 53.7269L40.945 53.7192L41.3116 54.1936ZM40.9031 54.5094L40.5405 54.032L40.5465 54.0274L40.5527 54.023L40.9031 54.5094ZM40.9114 54.6482L41.2102 54.1285L41.2138 54.1306L40.9114 54.6482ZM42.9561 55.6147L43.1663 55.0532L43.1748 55.0564L43.1831 55.0598L42.9561 55.6147ZM43 55.7318L42.4676 55.456L42.4728 55.4461L42.4783 55.4363L43 55.7318ZM41.6624 57.8933L41.1576 57.5699L41.167 57.5552L41.1773 57.5411L41.6624 57.8933ZM41.572 57.9233L41.7475 57.3499L41.7604 57.3541L41.572 57.9233ZM35.0155 54.6374L35.3624 54.1483L35.3689 54.1531L35.0155 54.6374ZM34.9826 54.5775L35.5793 54.5192L35.5821 54.5483V54.5775H34.9826ZM38.8556 39.7622L39.3911 40.0318L39.373 40.0677L39.3503 40.1009L38.8556 39.7622ZM49.9649 48.9966L50.5644 48.9885V48.9966H49.9649ZM41.2567 48.9966L41.8563 48.9874V48.9966H41.2567ZM38.643 39.1838C40.3581 38.4034 42.2 37.8271 44.1238 37.497L44.3266 38.6788C42.5062 38.9912 40.7629 39.5365 39.1396 40.2752L38.643 39.1838ZM44.0913 37.5035C44.4072 37.4311 44.6816 37.5902 44.8177 37.8026L43.8081 38.4495C43.9059 38.602 44.1145 38.7283 44.3592 38.6723L44.0913 37.5035ZM44.8352 37.8316C45.0783 38.2628 45.3427 38.8139 45.5275 39.246L44.425 39.7176C44.2535 39.3166 44.0081 38.806 43.7907 38.4205L44.8352 37.8316ZM44.8881 38.8888C46.9606 38.5807 49.0243 38.5804 51.058 38.889L50.8781 40.0745C48.9648 39.7842 47.0212 39.7839 45.0644 40.0748L44.8881 38.8888ZM50.4147 39.2511C50.6049 38.7948 50.8827 38.2526 51.1201 37.8316L52.1646 38.4205C51.9415 38.8161 51.6875 39.3139 51.5214 39.7124L50.4147 39.2511ZM51.1375 37.8026C51.2885 37.5669 51.5606 37.4526 51.8252 37.4964L51.6294 38.6794C51.8283 38.7123 52.0345 38.6252 52.1471 38.4495L51.1375 37.8026ZM51.8279 37.4969C53.7523 37.8243 55.5946 38.4007 57.3127 39.184L56.8153 40.275C55.1894 39.5338 53.4465 38.9886 51.6268 38.6789L51.8279 37.4969ZM57.2854 39.1724C57.4116 39.2225 57.532 39.3158 57.6128 39.4495L56.5865 40.0695C56.6212 40.1268 56.6622 40.1707 56.7016 40.2033C56.7409 40.2358 56.7879 40.2649 56.8427 40.2867L57.2854 39.1724ZM57.5969 39.4245C61.0754 44.5888 62.0367 49.6482 61.5668 54.6337L60.3731 54.5212C60.8187 49.7932 59.9161 45.0139 56.6024 40.0944L57.5969 39.4245ZM61.5694 54.5775C61.5694 54.8322 61.4298 55.0228 61.2839 55.1263L60.5901 54.1484C60.4826 54.2247 60.3704 54.3718 60.3704 54.5775H61.5694ZM61.2904 55.1216C58.9895 56.8007 56.7575 57.8226 54.5678 58.4963L54.2153 57.3503C56.2906 56.7118 58.4003 55.7463 60.5836 54.1531L61.2904 55.1216ZM54.58 58.4924C54.2967 58.5862 53.9908 58.4844 53.8174 58.2475L54.7848 57.5392C54.6552 57.3622 54.4206 57.2821 54.2031 57.3541L54.58 58.4924ZM53.8187 58.2494C53.2957 57.5408 52.8288 56.7915 52.4268 56.0044L53.4947 55.4591C53.8657 56.1856 54.2978 56.8793 54.7835 57.5373L53.8187 58.2494ZM52.4253 56.0013C52.2396 55.6324 52.4233 55.1869 52.809 55.0517L53.2057 56.1832C53.4982 56.0806 53.6381 55.744 53.4962 55.4622L52.4253 56.0013ZM52.7953 55.0567C53.4753 54.7995 54.1241 54.4867 54.7555 54.1272L55.3488 55.1692C54.67 55.5557 53.9647 55.8963 53.2194 56.1782L52.7953 55.0567ZM54.7533 54.1285C54.4182 54.3212 54.4169 54.7735 54.6977 54.9868L55.423 54.032C55.797 54.3161 55.7903 54.9154 55.351 55.168L54.7533 54.1285ZM54.7053 54.9925C54.5642 54.8887 54.4118 54.7733 54.2677 54.6515L55.0417 53.7357C55.1552 53.8317 55.2824 53.9286 55.4154 54.0263L54.7053 54.9925ZM54.2882 54.668C54.4488 54.7921 54.6434 54.7986 54.7911 54.7399L54.3484 53.6256C54.5509 53.5451 54.8113 53.557 55.0212 53.7192L54.2882 54.668ZM54.8174 54.7287C50.3713 56.7462 45.5437 56.7474 41.1463 54.7275L41.6468 53.6379C45.7245 55.511 50.1888 55.5123 54.322 53.6368L54.8174 54.7287ZM41.1299 54.7197C41.3402 54.8241 41.5513 54.766 41.6781 54.668L40.945 53.7192C41.1212 53.5831 41.398 53.5141 41.6632 53.6458L41.1299 54.7197ZM41.6881 54.6602C41.5552 54.7673 41.4075 54.8849 41.2536 54.9958L40.5527 54.023C40.6784 53.9324 40.8047 53.8322 40.9351 53.7271L41.6881 54.6602ZM41.2658 54.9868C41.5466 54.7735 41.5454 54.3212 41.2102 54.1285L40.6125 55.168C40.1732 54.9154 40.1665 54.3161 40.5405 54.032L41.2658 54.9868ZM41.2138 54.1306C41.8348 54.4934 42.4835 54.7976 43.1663 55.0532L42.746 56.1762C42.0035 55.8982 41.2926 55.5653 40.6089 55.1659L41.2138 54.1306ZM43.1831 55.0598C43.527 55.2004 43.7435 55.6354 43.5217 56.0272L42.4783 55.4363C42.3058 55.7409 42.4785 56.0671 42.7292 56.1696L43.1831 55.0598ZM43.5324 56.0075C43.1259 56.7923 42.6603 57.5393 42.1475 58.2456L41.1773 57.5411C41.6567 56.8808 42.0902 56.1848 42.4676 55.456L43.5324 56.0075ZM42.1672 58.2168C41.9822 58.5054 41.6434 58.5785 41.3835 58.4924L41.7604 57.3541C41.5662 57.2899 41.3042 57.3411 41.1576 57.5699L42.1672 58.2168ZM41.3965 58.4965C39.1954 57.8228 36.9632 56.8008 34.6621 55.1216L35.3689 54.1531C37.5521 55.7462 39.6616 56.7116 41.7474 57.35L41.3965 58.4965ZM34.6686 55.1263C34.5227 55.0228 34.3831 54.8322 34.3831 54.5775H35.5821C35.5821 54.3717 35.4699 54.2247 35.3624 54.1484L34.6686 55.1263ZM34.3859 54.6357C33.823 48.8712 35.3275 43.8536 38.361 39.4235L39.3503 40.1009C36.4633 44.3171 35.0458 49.0566 35.5793 54.5192L34.3859 54.6357ZM38.3201 39.4926C38.4011 39.3317 38.5345 39.2261 38.6699 39.1724L39.1126 40.2867C39.2206 40.2438 39.3266 40.16 39.3911 40.0318L38.3201 39.4926ZM52.3194 51.0214C53.2238 51.0214 54.0771 50.1724 54.0771 48.9966H55.2761C55.2761 50.7119 54.0024 52.2205 52.3194 52.2205V51.0214ZM54.0771 48.9966C54.0771 47.8174 53.24 46.9717 52.3194 46.9717V45.7726C54.0246 45.7726 55.2761 47.2845 55.2761 48.9966H54.0771ZM52.3194 46.9717C51.3871 46.9717 50.5488 47.8279 50.5643 48.9885L49.3654 49.0046C49.3425 47.2903 50.6093 45.7726 52.3194 45.7726V46.9717ZM50.5644 48.9966C50.5644 50.1762 51.4019 51.0214 52.3194 51.0214V52.2205C50.6165 52.2205 49.3653 50.7081 49.3653 48.9966H50.5644ZM43.6112 51.0214C44.5125 51.0214 45.3662 50.1729 45.3662 48.9966H46.5653C46.5653 50.7114 45.292 52.2205 43.6112 52.2205V51.0214ZM45.3662 48.9966C45.3662 47.8164 44.5311 46.9717 43.6112 46.9717V45.7726C45.3173 45.7726 46.5653 47.2855 46.5653 48.9966H45.3662ZM43.6112 46.9717C42.6781 46.9717 41.8385 47.8288 41.8562 48.9874L40.6573 49.0057C40.6311 47.2895 41.9021 45.7726 43.6112 45.7726V46.9717ZM41.8563 48.9966C41.8563 50.1781 42.6845 51.0214 43.6112 51.0214V52.2205C41.8957 52.2205 40.6572 50.7062 40.6572 48.9966H41.8563Z" fill="#82D9FF" mask="url(#path-11-inside-1_219_1226)" />
	</g>
	<g filter="url(#filter11_f_219_1226)">
		<path d="M44.8385 39.5407C44.6683 39.1428 44.4273 38.6397 44.2068 38.2432C42.3704 38.5622 40.6115 39.1133 38.9721 39.8574C36.0399 44.144 34.5926 48.9753 35.129 54.5346C37.3314 56.1374 39.4637 57.1165 41.5697 57.7658C42.036 57.1198 42.4602 56.4398 42.8328 55.7283C42.1385 55.4643 41.4746 55.1508 40.8362 54.7779C40.6878 54.6921 40.6842 54.4875 40.8125 54.39L40.8125 54.39L40.8155 54.3878C40.9518 54.2896 41.0862 54.1829 41.2174 54.077L41.2174 54.0769L41.2199 54.075C41.2819 54.0272 41.3745 54.0058 41.4607 54.0472C45.6578 55.9747 50.2578 55.9748 54.5078 54.0462L54.5077 54.0461L54.5144 54.0434C54.5856 54.0151 54.6753 54.0202 54.7463 54.075L54.7464 54.0749L54.7514 54.0791C54.8764 54.1848 55.0131 54.2887 55.1491 54.3886L55.1491 54.3886L55.151 54.39C55.2795 54.4876 55.2757 54.6926 55.1268 54.7782L55.1263 54.7785C54.4863 55.1429 53.8247 55.4639 53.1291 55.7314C53.4965 56.4418 53.9202 57.1208 54.3934 57.7659C56.4888 57.1165 58.621 56.1375 60.8234 54.5347C61.2713 49.7244 60.346 44.8545 56.9857 39.8585C55.3435 39.1115 53.5846 38.5601 51.7482 38.2436C51.5257 38.6415 51.2753 39.1343 51.1064 39.5394L51.0613 39.6475L50.9456 39.63C48.9871 39.3328 46.9985 39.3327 44.9983 39.63L44.8839 39.647L44.8385 39.5407ZM38.9466 39.8688C38.9488 39.8679 38.9511 39.8669 38.9533 39.8658L38.929 39.8124L38.9211 39.7952L38.8913 39.7295L38.9164 39.7928L38.9224 39.8079L38.9466 39.8688ZM54.8265 48.9966C54.8265 50.5096 53.7104 51.7708 52.3194 51.7708C50.9113 51.7708 49.8155 50.5092 49.815 48.9976C49.7954 47.4914 50.9013 46.2223 52.3194 46.2223C53.7304 46.2223 54.8265 47.4844 54.8265 48.9966ZM46.1156 48.9966C46.1156 50.5095 44.9997 51.7708 43.6112 51.7708C42.1919 51.7708 41.1074 50.5088 41.1069 48.9977C41.0844 47.4911 42.1935 46.2223 43.6112 46.2223C45.0225 46.2223 46.1156 47.4846 46.1156 48.9966Z" stroke="white" stroke-width="0.299758" />
	</g>
	<defs>
		<filter id="filter0_f_219_1226" x="9.82861" y="9.82837" width="76.3604" height="76.3604" filterUnits="userSpaceOnUse" color-interpolation-filters="sRGB">
			<feFlood flood-opacity="0" result="BackgroundImageFix" />
			<feBlend mode="normal" in="SourceGraphic" in2="BackgroundImageFix" result="shape" />
			<feGaussianBlur stdDeviation="4.6875" result="effect1_foregroundBlur_219_1226" />
		</filter>
		<filter id="filter1_f_219_1226" x="14.6294" y="14.6292" width="66.7585" height="66.7585" filterUnits="userSpaceOnUse" color-interpolation-filters="sRGB">
			<feFlood flood-opacity="0" result="BackgroundImageFix" />
			<feBlend mode="normal" in="SourceGraphic" in2="BackgroundImageFix" result="shape" />
			<feGaussianBlur stdDeviation="4.6875" result="effect1_foregroundBlur_219_1226" />
		</filter>
		<filter id="filter2_f_219_1226" x="20.8794" y="20.8792" width="54.2585" height="54.2585" filterUnits="userSpaceOnUse" color-interpolation-filters="sRGB">
			<feFlood flood-opacity="0" result="BackgroundImageFix" />
			<feBlend mode="normal" in="SourceGraphic" in2="BackgroundImageFix" result="shape" />
			<feGaussianBlur stdDeviation="1.5625" result="effect1_foregroundBlur_219_1226" />
		</filter>
		<filter id="filter3_ddi_219_1226" x="19.9419" y="23.0667" width="56.1335" height="56.1335" filterUnits="userSpaceOnUse" color-interpolation-filters="sRGB">
			<feFlood flood-opacity="0" result="BackgroundImageFix" />
			<feColorMatrix in="SourceAlpha" type="matrix" values="0 0 0 0 0 0 0 0 0 0 0 0 0 0 0 0 0 0 127 0" result="hardAlpha" />
			<feOffset dy="2.03125" />
			<feGaussianBlur stdDeviation="0.78125" />
			<feColorMatrix type="matrix" values="0 0 0 0 0 0 0 0 0 0.051 0 0 0 0 0.082 0 0 0 0.7 0" />
			<feBlend mode="multiply" in2="BackgroundImageFix" result="effect1_dropShadow_219_1226" />
			<feColorMatrix in="SourceAlpha" type="matrix" values="0 0 0 0 0 0 0 0 0 0 0 0 0 0 0 0 0 0 127 0" result="hardAlpha" />
			<feOffset dy="3.125" />
			<feGaussianBlur stdDeviation="2.03125" />
			<feColorMatrix type="matrix" values="0 0 0 0 0 0 0 0 0 0.4 0 0 0 0 1 0 0 0 1 0" />
			<feBlend mode="color-dodge" in2="effect1_dropShadow_219_1226" result="effect2_dropShadow_219_1226" />
			<feBlend mode="normal" in="SourceGraphic" in2="effect2_dropShadow_219_1226" result="shape" />
			<feColorMatrix in="SourceAlpha" type="matrix" values="0 0 0 0 0 0 0 0 0 0 0 0 0 0 0 0 0 0 127 0" result="hardAlpha" />
			<feOffset dx="-0.203125" dy="0.40625" />
			<feGaussianBlur stdDeviation="0.101562" />
			<feComposite in2="hardAlpha" operator="arithmetic" k2="-1" k3="1" />
			<feColorMatrix type="matrix" values="0 0 0 0 1 0 0 0 0 1 0 0 0 0 1 0 0 0 0.5 0" />
			<feBlend mode="normal" in2="shape" result="effect3_innerShadow_219_1226" />
		</filter>
		<filter id="filter4_f_219_1226" x="23.6919" y="23.6917" width="48.6335" height="48.6335" filterUnits="userSpaceOnUse" color-interpolation-filters="sRGB">
			<feFlood flood-opacity="0" result="BackgroundImageFix" />
			<feBlend mode="normal" in="SourceGraphic" in2="BackgroundImageFix" result="shape" />
			<feGaussianBlur stdDeviation="0.15625" result="effect1_foregroundBlur_219_1226" />
		</filter>
		<filter id="filter5_f_219_1226" x="23.7961" y="23.7958" width="48.4252" height="48.4252" filterUnits="userSpaceOnUse" color-interpolation-filters="sRGB">
			<feFlood flood-opacity="0" result="BackgroundImageFix" />
			<feBlend mode="normal" in="SourceGraphic" in2="BackgroundImageFix" result="shape" />
			<feGaussianBlur stdDeviation="0.104167" result="effect1_foregroundBlur_219_1226" />
		</filter>
		<filter id="filter6_f_219_1226" x="27.7517" y="31.6053" width="40.4442" height="32.8027" filterUnits="userSpaceOnUse" color-interpolation-filters="sRGB">
			<feFlood flood-opacity="0" result="BackgroundImageFix" />
			<feBlend mode="normal" in="SourceGraphic" in2="BackgroundImageFix" result="shape" />
			<feGaussianBlur stdDeviation="2.24819" result="effect1_foregroundBlur_219_1226" />
		</filter>
		<filter id="filter7_f_219_1226" x="30.3728" y="33.5894" width="35.2022" height="28.8343" filterUnits="userSpaceOnUse" color-interpolation-filters="sRGB">
			<feFlood flood-opacity="0" result="BackgroundImageFix" />
			<feBlend mode="normal" in="SourceGraphic" in2="BackgroundImageFix" result="shape" />
			<feGaussianBlur stdDeviation="2.24819" result="effect1_foregroundBlur_219_1226" />
		</filter>
		<filter id="filter8_f_219_1226" x="33.3703" y="36.587" width="29.2071" height="22.8391" filterUnits="userSpaceOnUse" color-interpolation-filters="sRGB">
			<feFlood flood-opacity="0" result="BackgroundImageFix" />
			<feBlend mode="normal" in="SourceGraphic" in2="BackgroundImageFix" result="shape" />
			<feGaussianBlur stdDeviation="0.749396" result="effect1_foregroundBlur_219_1226" />
		</filter>
		<filter id="filter9_ddi_219_1226" x="32.9207" y="37.6362" width="30.1063" height="23.7384" filterUnits="userSpaceOnUse" color-interpolation-filters="sRGB">
			<feFlood flood-opacity="0" result="BackgroundImageFix" />
			<feColorMatrix in="SourceAlpha" type="matrix" values="0 0 0 0 0 0 0 0 0 0 0 0 0 0 0 0 0 0 127 0" result="hardAlpha" />
			<feOffset dy="0.974215" />
			<feGaussianBlur stdDeviation="0.374698" />
			<feColorMatrix type="matrix" values="0 0 0 0 0 0 0 0 0 0.051 0 0 0 0 0.082 0 0 0 0.7 0" />
			<feBlend mode="multiply" in2="BackgroundImageFix" result="effect1_dropShadow_219_1226" />
			<feColorMatrix in="SourceAlpha" type="matrix" values="0 0 0 0 0 0 0 0 0 0 0 0 0 0 0 0 0 0 127 0" result="hardAlpha" />
			<feOffset dy="1.49879" />
			<feGaussianBlur stdDeviation="0.974215" />
			<feColorMatrix type="matrix" values="0 0 0 0 0 0 0 0 0 0.4 0 0 0 0 1 0 0 0 1 0" />
			<feBlend mode="color-dodge" in2="effect1_dropShadow_219_1226" result="effect2_dropShadow_219_1226" />
			<feBlend mode="normal" in="SourceGraphic" in2="effect2_dropShadow_219_1226" result="shape" />
			<feColorMatrix in="SourceAlpha" type="matrix" values="0 0 0 0 0 0 0 0 0 0 0 0 0 0 0 0 0 0 127 0" result="hardAlpha" />
			<feOffset dx="-0.0974215" dy="0.194843" />
			<feGaussianBlur stdDeviation="0.0487107" />
			<feComposite in2="hardAlpha" operator="arithmetic" k2="-1" k3="1" />
			<feColorMatrix type="matrix" values="0 0 0 0 1 0 0 0 0 1 0 0 0 0 1 0 0 0 0.5 0" />
			<feBlend mode="normal" in2="shape" result="effect3_innerShadow_219_1226" />
		</filter>
		<filter id="filter10_f_219_1226" x="34.7193" y="37.9359" width="26.5092" height="20.1413" filterUnits="userSpaceOnUse" color-interpolation-filters="sRGB">
			<feFlood flood-opacity="0" result="BackgroundImageFix" />
			<feBlend mode="normal" in="SourceGraphic" in2="BackgroundImageFix" result="shape" />
			<feGaussianBlur stdDeviation="0.0749396" result="effect1_foregroundBlur_219_1226" />
		</filter>
		<filter id="filter11_f_219_1226" x="34.7692" y="37.9859" width="26.4093" height="20.0414" filterUnits="userSpaceOnUse" color-interpolation-filters="sRGB">
			<feFlood flood-opacity="0" result="BackgroundImageFix" />
			<feBlend mode="normal" in="SourceGraphic" in2="BackgroundImageFix" result="shape" />
			<feGaussianBlur stdDeviation="0.0499597" result="effect1_foregroundBlur_219_1226" />
		</filter>
	</defs>
</svg>
