<svg width="153" height="76" viewBox="0 0 153 76" fill="none" xmlns="http://www.w3.org/2000/svg">
<path fill-rule="evenodd" clip-rule="evenodd" d="M107.915 57.1555C107.84 59.0585 108.021 61.8402 106.865 63.448C106.117 64.4875 105.344 63.8767 104.892 63.0185C103.881 61.1009 103.836 55.7496 105.158 53.8144C106.554 51.772 107.832 54.9869 107.832 57.055C107.832 57.1856 107.8 57.1555 107.915 57.1555ZM39.4123 70.2066C39.543 70.2066 39.5129 70.244 39.5129 70.1053C40.4552 69.9746 41.7575 68.4035 42.228 68.0592L42.362 73.4391C42.4264 73.9684 42.5296 74.7106 42.5296 75.2451C42.8828 75.2128 43.1824 75.0116 43.5691 74.8971L49.2098 72.6513C49.4491 72.5368 49.4062 72.5089 49.6488 72.3878C50.0074 72.2086 50.3559 72.1249 50.6729 71.9414C50.6515 71.6521 50.5697 71.4569 50.5335 71.1852C50.4839 70.8057 50.4404 70.6287 50.3914 70.3497C50.1629 69.0334 49.874 66.3427 49.8459 65.0829C49.8365 64.6747 49.7768 64.6718 49.7661 64.2621L49.7889 61.3087C49.8968 60.4446 49.8867 56.9419 50.0369 55.7981C50.3164 53.6735 50.3264 52.1684 50.7554 49.8125L51.2198 47.3473C51.4162 46.3261 51.7413 45.2747 51.9551 44.2704C51.756 44.1243 51.7017 44.0135 51.5208 43.838L50.62 43.007C50.4511 42.852 50.3673 42.7162 50.1984 42.5606C49.8988 42.2838 48.5865 41.0401 48.3358 40.9667C48.124 41.1363 47.8774 41.7141 47.8077 42.0408C47.4444 42.007 47.5476 41.9064 47.2802 41.7097C47.0181 42.2522 45.4444 45.9333 45.3948 46.5837C45.1133 46.5008 45.2668 46.5632 44.9934 45.9494C44.5021 44.8482 43.795 43.4614 43.0014 42.5966C41.9177 41.416 40.8346 40.3897 39.1248 40.1533C37.1932 39.8861 35.8132 40.4161 34.3856 41.4623C32.6329 42.7456 32.3843 43.0077 31.1598 44.6199C30.8367 45.0457 30.6243 45.4928 30.324 45.934C29.6973 46.8554 28.7704 49.3779 28.4594 50.5819C27.94 52.5921 27.3602 56.4552 27.6196 58.5372C27.8455 60.355 27.7637 60.4049 28.1578 62.4077C28.3971 63.6227 28.8254 64.6344 29.2262 65.6982C29.7543 67.1019 30.4051 67.9667 31.3025 69.04C31.3133 69.0525 31.3287 69.0701 31.3394 69.0826L31.5163 69.3021C31.6725 69.4996 31.5874 69.4071 31.7878 69.5826C32.3045 70.0333 32.6665 70.3453 33.2958 70.6566C33.5016 70.7579 33.4929 70.7792 33.6517 70.8453C34.6383 71.2557 35.2804 71.3372 36.3467 71.2814C37.2046 71.2359 38.8701 70.5979 39.4123 70.2066ZM35.9687 1.89804C35.7348 1.83784 35.7502 1.79232 35.5163 1.73286C35.4647 1.97513 35.3273 2.31431 35.2361 2.58227C35.1195 2.92439 35.0599 3.14684 34.96 3.51832C34.8099 4.07774 34.5445 4.03149 33.584 4.40664L31.261 5.4139C29.4862 6.22587 27.9433 7.33885 26.3904 8.50395C26.0881 8.7308 26.1625 8.63536 26.0023 8.9048C25.7161 9.38714 25.5003 9.27041 25.2611 9.66171L28.0512 12.5528C28.2717 12.5528 28.7617 12.2929 28.9922 12.1799L31.8709 11.0375C32.0626 10.9736 31.9694 10.9847 32.2074 10.9105L33.2623 10.6066C33.4815 10.6536 33.3695 10.9347 33.328 11.224C33.072 13.0094 32.6812 18.5501 32.9091 20.1997C33.0123 20.9471 33.078 23.3133 33.2408 24.5445L34.5512 32.3603C35.0049 34.3682 35.4057 35.7359 36.0773 37.7093C36.1523 37.9303 36.2026 38.13 36.273 38.3208C36.3796 38.6094 36.6242 39.1747 36.6476 39.4801C36.9874 39.3934 37.1289 39.2143 37.466 39.055L39.035 38.13C39.3212 37.9582 39.5752 37.8128 39.8581 37.6278C40.3963 37.2761 40.8708 37.0331 41.4224 36.6984C41.7119 36.5222 41.915 36.3511 42.1563 36.1801C42.425 35.9899 42.6938 35.8475 42.982 35.6801L41.3694 30.508C40.291 26.8519 39.2977 21.1461 39.0578 17.2639L38.9103 13.9565C38.8775 13.2906 38.7971 13.7429 38.8634 12.7554L38.9552 9.79386C39.0189 9.43412 38.9546 9.46276 39.2823 9.40916C40.7689 9.16542 45.6026 9.16983 46.2239 9.49653C46.2976 9.30124 46.2072 9.13606 46.3747 8.75356C46.862 8.87764 46.6964 8.83579 47.2802 8.83579L47.313 8.3094C47.3278 8.16697 47.3345 8.13174 47.3479 7.9247C47.3707 7.56791 47.3861 7.26837 47.3968 7.10172L47.7326 1.98027C47.612 1.97733 47.4397 1.93989 47.4022 1.93769C45.858 1.84078 42.3801 2.13224 40.8379 2.43985C39.7006 2.66743 40.1476 2.74452 38.8594 2.03533C38.4331 1.8004 38.033 1.6264 37.6282 1.40175C37.2951 1.21748 36.7354 0.923085 36.346 0.823975C36.2636 1.21014 36.145 1.61025 35.9687 1.89804ZM38.2314 62.1948C37.1262 62.1948 36.5605 62.1214 35.7187 60.982C33.9426 58.5776 33.9459 55.1447 34.4399 52.1773C34.6644 50.8249 35.2455 49.4022 35.9787 48.3288C36.8366 47.0734 37.0907 47.0793 38.0049 47.0793C38.7877 47.0793 39.6871 48.0366 40.1308 48.7972C41.8781 51.7896 41.8004 56.0095 40.6771 59.0922C40.5243 59.5114 40.4063 59.6781 40.2582 60.0371C39.9264 60.8403 39.1516 62.1948 38.2314 62.1948ZM56.2533 43.5275C55.9865 43.4592 55.8652 43.3219 55.6501 43.1971L54.5938 46.0045C53.4993 49.0035 52.6548 52.7697 52.636 56.0015L52.4805 58.4748C52.4812 59.3977 52.4075 60.1296 52.4075 61.1207C52.4075 64.0786 52.3827 65.0102 52.7031 68.0658C52.7748 68.753 52.8472 69.421 52.9557 70.1016L53.3123 72.1058C53.6146 71.9473 53.9852 71.8276 54.3022 71.7035C55.5207 71.2263 59.148 69.703 60.1989 69.1597C60.5434 68.982 60.906 68.8903 61.2304 68.7199L60.5937 66.4433C60.3806 65.6299 60.2298 64.815 60.0783 63.9516C59.8833 62.8364 59.6426 60.1707 59.7767 59.1157C59.8115 58.8397 59.7928 58.5886 59.7948 58.3096C59.8055 56.8927 60.264 54.5376 60.6728 53.241C60.955 52.3446 62.3028 49.8045 63.1151 49.8045C64.6935 49.8045 65.6024 51.5158 65.9971 53.0076C66.2103 53.8122 66.42 54.4561 66.5527 55.4552C67.0487 59.1723 66.538 64.3524 65.7692 67.8279C65.5595 68.7772 65.4221 68.5371 66.6895 68.8521C67.4656 69.0452 71.6512 70.2066 72.0131 70.2066C72.0131 69.1127 72.2283 69.6905 73.0687 69.711C73.1324 68.877 73.3254 67.9292 73.3683 67.0651C73.4474 65.4926 73.6002 64.4589 73.5969 62.7726C73.5955 62.1485 73.6679 61.8079 73.676 61.2881L73.4166 57.0307C73.3951 56.6732 73.4876 56.2195 73.5533 55.7871C73.7021 54.8121 73.8563 54.1323 74.1143 53.3446C74.361 52.5913 75.1384 51.09 75.6505 50.485C76.2001 49.836 76.2731 49.8045 76.7637 49.8045C77.6458 49.8045 78.446 50.7435 78.8911 51.5217C79.7939 53.1023 79.8998 54.5845 80.1035 56.3061L80.2349 58.2267C80.2637 59.278 80.0452 62.8636 79.8977 63.9751C79.8099 64.6336 79.7362 65.2217 79.6498 65.7686C79.3864 67.4447 78.6102 70.711 78.131 72.282L77.3998 74.5374C77.2879 74.8398 77.2074 75.0153 77.1411 75.3273C77.3656 75.4455 77.8093 75.6577 78.121 75.6577H85.2851C85.5605 75.6577 85.6034 74.9661 85.7529 74.2709C87.0927 68.0452 88.0163 57.9117 85.6081 51.7632C85.1966 50.7126 84.6738 49.7443 84.0572 48.8369C82.8548 47.069 80.8622 45.4267 78.6491 45.4267C77.4728 45.4267 76.9212 45.4796 75.8361 45.9803C74.3194 46.6792 72.2812 48.4221 71.3348 49.9697C71.1458 49.8184 70.9709 49.4513 70.8228 49.2091C69.666 47.3142 67.4334 45.4267 65.3021 45.4267C63.9784 45.4267 63.2854 45.495 62.1091 46.1425L60.0991 47.4919C60.1158 46.6704 60.4757 45.8819 60.4757 45.0963C59.9094 44.6808 57.2801 42.7015 56.6306 42.5364C56.508 42.7896 56.3176 43.2235 56.2533 43.5275ZM10.1802 20.895C9.84236 20.8091 9.93754 20.7313 9.65202 20.6476C9.46904 20.7944 9.23513 21.265 9.10109 21.5308C8.9905 21.7503 8.96503 21.7965 8.8464 21.9955L8.70565 22.2546C8.69761 22.2693 8.68621 22.2906 8.6775 22.3053L8.35445 22.9433C8.27201 23.1121 8.207 23.245 8.11182 23.4205L4.09311 32.8125C4.0529 32.9329 4.03279 33.0371 4.00464 33.1289C3.93091 33.3727 3.89472 33.3998 3.81898 33.6685C3.4403 35.012 2.98924 36.3166 2.65412 37.6792L1.29489 43.6244C1.18631 44.2991 1.16754 44.9062 1.01808 45.5508C0.791544 46.5279 0.632699 48.4889 0.504685 49.5321C0.223187 51.8366 0 55.7269 0 57.9822C0 60.4952 0.0274795 62.9297 0.219836 65.4228C0.412863 67.9344 0.686988 70.4533 1.06567 72.9215C1.14409 73.4354 1.35722 74.2107 1.35722 74.7495C1.66955 74.7415 2.35051 74.4801 2.66753 74.367C4.22917 73.8105 5.8766 73.3143 7.40339 72.6168L10.2599 71.5332C10.6406 71.3203 11.1527 71.2344 11.5374 71.0325C10.9657 68.344 10.6788 65.6402 10.3926 62.8702C10.3276 62.2418 10.3042 61.4379 10.2117 60.7551C10.1125 60.0224 10.1614 59.2538 10.0609 58.5255C10.0521 58.4609 9.90268 54.5471 9.96837 54.1991C10.0213 53.9194 10.0052 53.9054 10.2794 53.7961C11.3041 53.3857 15.7558 52.8028 16.3631 52.9437C16.3631 53.4319 16.2793 53.8944 16.2324 54.2872C16.1734 54.7842 16.2491 55.3011 16.1808 55.7996C16.1151 56.2724 16.1405 56.7356 16.1392 57.2414C16.1392 57.8067 16.0279 58.0967 16.0608 58.7252C16.1258 59.9593 16.0098 60.413 16.1258 61.5458C16.1707 61.9833 16.1385 62.6426 16.1365 63.1029C16.1345 63.7321 16.2049 64.0272 16.2123 64.5903C16.2478 67.4425 16.7605 71.4502 17.2739 74.2474C17.3396 74.6042 17.4864 75.1974 17.4944 75.5755C18.2444 75.5072 19.2457 74.9404 20.0145 74.7018L27.5988 71.8584C27.5506 71.2278 27.3837 70.6052 27.2872 69.9695C27.1967 69.3726 27.0948 68.6964 26.9956 68.0592C26.7952 66.77 26.6873 65.4955 26.5097 64.1307C26.2972 62.5061 26.0908 57.1438 26.0908 55.5867C26.0908 54.2101 26.0191 52.6031 26.1552 51.2794C26.188 50.9578 26.1632 50.5467 26.1632 50.2149L26.6377 44.0443C26.6726 43.7433 26.7503 43.4129 26.7691 43.0312C26.8214 41.9909 27.2872 39.3868 27.4594 38.2533C27.5084 37.9295 27.5801 37.6418 27.6417 37.2967C28.3743 33.1943 29.6477 29.3825 31.0995 25.5554C31.259 25.1347 31.6611 24.416 31.6705 23.9513L28.2335 21.356C28.009 21.1879 27.8589 21.1152 27.6283 20.9449C27.3958 20.7731 27.2771 20.6366 26.9956 20.5646C26.7356 20.7739 26.4299 21.4126 26.2416 21.7216C26.0439 21.5763 25.9286 21.5153 25.7135 21.3905C25.2483 22.3545 24.631 23.1914 24.1967 24.1899C23.9836 24.6803 23.7162 25.1017 23.4762 25.631L20.8804 31.7076L19.4522 35.9253C19.3851 36.1426 19.4106 36.0347 19.3684 36.1639L19.1325 36.9788C19.0822 37.1315 19.0467 37.3151 19.0178 37.4325L18.6687 38.7011C18.3798 39.6247 18.0849 40.9829 17.9368 41.8646L17.2726 45.0185C17.2478 45.2821 17.2779 45.2821 17.2203 45.5398C17.1097 46.0383 16.8999 47.0396 16.8912 47.4919C16.5058 47.4919 16.3074 47.5183 16.038 47.555C15.6895 47.6027 15.5729 47.4919 15.2324 47.4919C14.2994 47.4919 13.5467 47.6674 12.6687 47.6578C11.7559 47.6483 11.0374 47.9052 10.1802 47.9052C10.1802 47.3641 10.2117 46.6505 10.276 46.1102C10.335 45.6117 10.3752 44.9804 10.4496 44.4004L10.6306 42.6993C10.6701 42.1752 10.7358 41.5489 10.8249 41.013C10.9154 40.4704 10.9891 39.8449 11.0642 39.3751L11.6131 36.1771C11.9368 34.6706 12.2673 33.0621 12.7076 31.5931L14.034 27.3475C14.1158 27.0993 14.1761 26.954 14.2733 26.7007C14.6312 25.7676 14.92 24.8719 15.3316 23.9784C15.4489 23.7237 15.5494 23.5724 15.609 23.2905C15.2217 22.6562 10.9865 19.7717 10.8584 19.7387C10.7445 19.9259 10.6567 20.0933 10.5428 20.3018C10.402 20.5609 10.3122 20.6784 10.1802 20.895ZM147.743 75.6577H131.057L131.349 74.74C132.165 72.274 132.903 69.9606 133.402 67.3243C134.17 63.2644 135.37 52.8255 131.858 50.2494C130.615 49.3375 129.965 49.9484 129.156 51.2742C128.774 51.8975 128.45 52.5245 128.179 53.2609C127.284 55.6997 127.254 58.5945 127.283 61.2066C127.288 61.6097 127.372 62.2924 127.414 62.6331C127.581 63.9773 127.755 65.1769 128.089 66.436C128.23 66.9697 128.687 68.2934 128.719 68.7199C128.415 68.8792 128.047 68.9813 127.739 69.1333C126.908 69.5429 121.525 71.9649 120.876 72.0236C120.584 71.3563 120.167 68.1752 120.125 67.3133C120.082 66.4477 119.965 65.6556 119.972 64.7548C119.977 64.1733 119.899 63.9318 119.893 63.437C119.858 60.3256 120.058 57.041 120.268 54.0934C120.476 51.1568 121.446 48.6827 121.555 47.2445C118.872 46.5595 116.952 44.744 115.372 42.4541C114.189 40.7399 113.251 38.8494 112.629 36.7857C112.424 36.1066 112.242 35.208 111.978 34.6068C111.545 34.8344 111.27 34.8233 110.999 35.2675C111.1 35.7454 111.275 35.9209 111.475 36.3144C112 37.3459 112.356 38.4603 112.733 39.5623C113.007 40.3603 113.133 41.2876 113.262 42.1223C113.73 45.1573 113.336 45.0985 113.336 46.8312C113.775 47.1534 114.253 47.6292 114.637 48.0491C117.859 51.5789 118.726 56.7943 117.927 61.8541C117.38 65.3179 115.169 69.6354 112.044 71.0215C110.934 71.5141 109.899 72.1058 108.359 72.1058C102.611 72.1058 99.3861 65.2312 99.3861 59.4689C99.3861 57.2488 99.6321 55.4729 100.261 53.4892C100.42 52.9885 100.641 52.5451 100.807 52.1046L101.464 50.7596C102.097 49.6114 102.849 48.9705 103.105 48.5094C103.281 48.1908 103.277 48.1952 103.532 47.9867C103.63 47.9067 103.676 47.881 103.786 47.7694C103.995 47.5587 103.897 47.7599 103.986 47.4919C103.642 47.2929 103.229 47.0793 102.704 47.0793C101.188 47.0793 98.2554 48.1372 97.2125 49.4066C96.7977 49.9117 96.9726 51.9137 96.9726 52.6133C96.9726 55.2746 97.2172 58.071 97.419 60.7147C97.6093 63.2116 97.9659 65.776 98.3405 68.2126L99.0845 73.0147C98.8218 73.0815 98.4799 73.2291 98.2547 73.3451C96.9002 74.044 95.7715 74.4485 94.3875 75.0557C94.1127 75.1768 93.9029 75.2583 93.6342 75.3868C93.3567 75.5197 93.1985 75.6577 92.8259 75.6577H91.3527C90.85 75.5806 90.9981 75.2091 90.7682 73.699C90.216 70.0744 89.848 66.3875 89.4955 62.7035C89.021 57.7473 89.405 53.6683 89.7388 48.8192C89.7877 48.1071 89.8983 46.9817 90.0357 46.3356C89.4057 46.3929 88.6791 47.0272 88.0954 47.2672C87.9318 47.334 87.842 47.3407 87.6972 47.4089L87.019 47.8223C86.7723 46.6623 85.834 44.5773 85.8125 43.5275C86.2355 43.4886 86.5692 43.3065 86.7207 43.0348L86.7737 42.9284C86.9707 42.656 88.4392 42.242 88.7696 42.1406C89.3453 41.9637 89.8386 41.825 90.4425 41.6598C91.482 41.3764 91.1798 41.6407 91.543 40.6356C91.9747 39.4397 92.61 38.5888 91.6958 37.4127C90.594 35.9943 86.2529 36.7351 84.765 37.2585C84.3018 37.4208 83.773 37.6741 83.3555 37.945L81.3381 39.1211C78.251 40.8287 74.6559 41.2898 71.5098 39.4529C71.2437 39.298 70.9622 39.0902 70.7504 38.881C70.4924 38.6263 70.3094 38.5073 70.0701 38.2217L69.4803 37.4641C69.2819 37.1866 69.164 36.9766 68.975 36.6962C68.3771 35.8071 67.731 33.9835 67.4817 32.7149C67.0802 30.6732 67.1117 29.6916 67.1117 27.5861C66.7397 27.6947 66.229 28.4157 66.0119 28.7761C65.6962 29.2996 65.6747 29.8825 65.6794 30.7253C65.6922 32.9344 65.1533 36.9891 64.7424 39.0322L64.1044 41.8022C64.034 42.0643 63.9596 42.496 63.8691 42.7015C63.5441 42.6186 63.3088 42.402 62.9643 42.3712C62.9435 42.6435 62.8665 42.8667 62.8135 43.1141C62.5468 43.0899 61.6627 42.6905 61.3591 42.5598C60.8799 42.3543 60.4717 42.206 59.9912 41.9938C59.4892 41.7721 59.081 41.5783 58.6024 41.3668C58.3913 41.2736 58.1138 41.1481 57.9007 41.0614C57.6822 40.9726 57.4349 40.8529 57.2338 40.8015C57.2687 40.3405 58.0254 38.2717 58.205 37.6528C59.4174 33.4718 60.1178 28.633 59.6339 24.2134C59.5522 23.4711 59.3873 22.7172 59.1855 22.0608C58.8337 20.9185 58.0756 19.4083 56.7057 19.4083C56.4108 19.4083 55.7231 20.4472 55.5703 20.7254C54.9624 21.8318 54.5348 23.0431 54.3713 24.3683C54.2835 25.0826 54.0067 27.0127 54.0951 27.7131C54.1829 28.3995 54.1347 28.9861 54.2707 30.0051C54.5107 31.8038 54.8384 33.4975 55.1977 35.1845C54.6085 35.335 54.0482 35.6852 53.4892 35.9569C52.9209 36.2322 52.37 36.4275 51.8043 36.6719C50.7788 37.1146 49.3606 37.5764 48.4109 38.0756C48.3888 37.7842 48.3137 37.6447 48.244 37.3496L47.7882 35.1236C46.4927 27.7931 46.6656 19.1918 48.5295 12.0213C49.5402 8.13174 50.2996 6.28534 51.8043 2.97137C51.9785 2.58814 52.2413 2.24236 52.3324 1.81508C52.6957 1.84812 52.5717 1.94723 52.9356 1.98027C53.0147 1.6543 53.2258 1.48031 53.3123 1.07212C53.76 1.1125 55.3887 2.33633 55.8465 2.67404C56.1286 2.88181 56.3699 3.0279 56.6306 3.21952C56.5241 3.71801 56.2258 4.29065 56.0549 4.81924C55.516 6.49017 55.0804 8.19928 54.6843 9.92527C54.266 11.7482 53.7647 15.7207 53.7647 17.7565C54.7097 17.5157 56.7975 14.6297 60.0247 15.938C62.089 16.7749 63.4147 18.5721 64.3477 20.7012C64.5474 21.1571 64.6996 21.5976 64.8403 22.0623C64.9355 22.3772 65.089 23.3735 65.3778 23.3735C66.6305 23.3735 67.9281 22.6812 68.6653 21.6056C68.9951 21.124 69.1868 20.6241 69.473 20.0948C69.8121 19.4678 70.4327 18.5494 70.9388 18.0663C71.9595 17.0935 73.0191 16.2434 74.3402 15.7625C76.4688 14.988 78.4259 15.7743 80.0063 15.7743C81.4084 15.7743 82.9352 15.5849 84.1765 15.3866C86.2422 15.057 88.0806 15.0306 90.1865 15.0306C93.482 15.0306 96.6898 15.9607 99.5161 17.2837C100.174 17.592 100.835 17.9356 101.446 18.3086C102.968 19.2365 103.515 19.7849 104.772 20.8597C105.336 21.3436 105.652 21.8626 106.248 22.2994C106.692 21.8773 107.106 21.4419 107.619 21.0756C108.09 20.7379 108.703 20.3811 109.253 20.1388C110.925 19.4017 112.328 19.1609 114.316 19.1609C117.214 19.1609 119.919 20.6057 122.114 22.2657C126.782 25.794 129.92 32.7281 129.101 39.0719L128.036 45.0912C127.9 45.8121 127.604 46.7313 127.588 47.4919C128.964 46.4824 130.299 45.4267 132.112 45.4267C134.12 45.4267 135.287 46.0214 136.756 47.279C138.272 48.5755 139.45 50.9659 140.078 52.9731C140.311 53.7175 140.526 54.5559 140.666 55.3862C140.975 57.2297 141.161 59.1216 141.161 61.0378C141.161 62.0883 141.09 62.8562 141.089 63.9318L140.903 66.6202C140.783 67.5497 140.74 68.3815 140.62 69.283C140.008 73.8744 142.784 70.0583 143.715 68.7082C144.917 66.9638 145.158 65.5858 145.158 63.2681C145.158 60.584 143.947 58.8522 143.165 56.613C142.775 55.4956 142.669 54.7108 142.669 53.4393C142.669 50.8866 144.194 49.1056 145.847 47.7503C146.9 46.8869 150.18 44.6852 151.237 44.6162L153 48.566C151.649 49.3486 150.323 50.5034 149.562 51.9856C148.743 53.578 149.056 54.851 149.758 56.3289L150.724 58.1621C151.923 60.3322 153 62.2021 153 65.2503C153 67.7743 152.421 69.9614 151.126 71.8709C150.345 73.0243 149.356 74.3472 148.337 75.2576C148.079 75.4866 148.052 75.6158 147.743 75.6577ZM112.356 64.0118C110.548 64.0118 110.395 59.5283 110.395 57.9822C110.395 56.823 110.877 53.1089 112.281 53.1089C112.767 53.1089 113.072 53.6191 113.263 53.9326C114.785 56.4405 114.246 64.0118 112.356 64.0118ZM97.2742 46.2526C97.2742 45.782 97.3439 45.3137 97.425 44.9312C98.7487 44.9312 99.427 45.0963 100.291 45.0963C100.202 45.158 100.303 45.1088 100.135 45.1734C100.129 45.1756 99.9618 45.2307 99.9605 45.2307L98.7346 45.622C98.238 45.8085 97.7206 46.1388 97.2742 46.2526ZM73.2195 27.3379C73.2195 26.2036 73.491 24.6744 73.9481 23.6752C74.2624 22.9873 75.1679 21.3905 75.9347 21.3905C77.4628 21.3905 78.6491 21.9184 78.6491 24.0342C78.6491 25.6229 78.0325 26.4268 76.8951 26.9855C76.3797 27.2388 75.8442 27.4546 75.1766 27.5031C73.94 27.5919 73.9528 27.4047 73.2195 27.3379ZM82.7965 20.0691C82.7965 19.1352 83.2858 19.0831 83.7328 18.9473C84.5351 18.7043 86.3018 18.3431 87.1671 18.3313C91.5008 18.2741 93.2876 18.6044 97.3593 20.224C97.8285 20.4104 98.3365 20.6784 98.7849 20.8928C99.2722 21.127 99.6964 21.3259 100.164 21.6123C100.414 21.765 100.519 21.8479 100.794 21.9962C101.67 22.469 104.258 24.4666 104.985 25.1707C105.926 26.0818 105.723 26.1816 106.474 26.1816C106.887 26.1816 107.466 25.4864 107.799 25.2375L109.239 24.3367C111.596 23.0431 114.281 22.8691 116.806 23.5372C117.909 23.8294 119.129 24.4211 119.986 25.0092C123.705 27.5567 126.683 32.593 126.683 37.4149C126.683 39.6717 126.098 41.673 124.392 42.9174C122.53 44.2763 120.519 43.3403 119.124 41.8117C118.908 41.5739 118.746 41.5166 118.56 41.2743C118.367 41.0247 118.33 40.9388 118.105 40.6988C117.354 39.8941 116.549 38.3759 116.027 37.3591C115.647 36.6205 114.919 34.7617 114.919 33.7808C117.924 33.7808 119.793 34.2463 122.175 35.9936C123.164 36.7197 122.709 36.6176 123.958 36.1646C124.675 35.9055 125.496 35.8167 124.226 34.7367C124.047 34.5847 123.991 34.49 123.829 34.3461C121.935 32.6561 119.189 31.2201 116.654 31.2201C114.441 31.2201 113.096 31.2825 111.073 32.3749C110.788 32.5291 110.506 32.6642 110.228 32.8551C109.952 33.0452 109.742 33.2133 109.46 33.4167C107.104 35.1214 108.578 35.1838 109.657 37.0676C110.401 38.3649 111.207 40.9623 111.43 42.5591C111.543 43.3703 111.671 44.2036 111.378 44.9341C111.253 45.2476 111.151 45.2593 110.999 45.5097C110.362 45.1756 107.727 44.7285 106.853 44.6867L104.664 44.6008C103.298 44.6008 101.099 45.0141 100.743 45.0141C100.786 44.8137 100.822 44.6823 100.894 44.5186C101.988 44.7975 101.843 44.5722 102.131 43.3131C102.233 42.8689 102.469 42.203 102.477 41.7927C102.219 41.7692 101.722 41.6231 101.483 41.5614C101.135 41.4718 100.849 41.4212 100.487 41.3294L98.3982 40.9689C98.0001 40.9161 98.1053 40.8581 98.2695 40.1577C98.7018 38.3186 99.0088 38.0176 99.0088 36.2586C99.0088 33.9211 96.992 31.8038 95.1536 30.983C92.2226 29.674 89.3433 29.7114 86.3239 30.6233C84.5177 31.1695 83.6008 31.922 82.2369 32.8375C80.4326 34.0473 77.2329 35.3615 75.2718 33.598C74.5888 32.9836 74.3911 32.579 73.9736 31.7157C76.4729 31.7157 79.5231 30.0499 81.2335 28.1036C81.4084 27.9039 81.5452 27.7006 81.7174 27.4781C81.8696 27.2829 82.0398 27.034 82.1631 26.8093C83.5954 24.2016 82.7965 22.1049 82.7965 20.0691Z" fill="white"/>
</svg>
