<svg width="97" height="97" viewBox="0 0 97 97" fill="none" xmlns="http://www.w3.org/2000/svg">
	<g style="mix-blend-mode:hard-light" filter="url(#filter0_f_219_1209)">
		<circle cx="48.2629" cy="48.0085" r="28.8051" fill="#128DFF" fill-opacity="0.2" />
	</g>
	<g style="mix-blend-mode:hard-light" filter="url(#filter1_f_219_1209)">
		<circle cx="48.2628" cy="48.0084" r="22.9887" stroke="#0094FF" stroke-width="2.03125" />
	</g>
	<g style="mix-blend-mode:hard-light" filter="url(#filter2_f_219_1209)">
		<circle cx="48.2628" cy="48.0084" r="22.6762" stroke="#0094FF" stroke-width="2.65625" />
	</g>
	<g style="mix-blend-mode:hard-light" filter="url(#filter3_ddi_219_1209)">
		<circle cx="48.2628" cy="48.0084" r="22.9887" stroke="#00B3FF" stroke-opacity="0.2" stroke-width="2.03125" />
	</g>
	<g filter="url(#filter4_f_219_1209)">
		<circle cx="48.2628" cy="48.0084" r="23.3793" stroke="#82D9FF" stroke-width="1.25" />
	</g>
	<g filter="url(#filter5_f_219_1209)">
		<circle cx="48.2628" cy="48.0084" r="23.6918" stroke="white" stroke-width="0.625" />
	</g>
	<g style="mix-blend-mode:hard-light" filter="url(#filter6_f_219_1209)">
		<ellipse cx="48.1576" cy="48.2324" rx="15.2997" ry="12.4245" fill="#128DFF" fill-opacity="0.2" />
	</g>
	<g style="mix-blend-mode:hard-light" filter="url(#filter7_f_219_1209)">
		<mask id="path-8-inside-1_219_1209" fill="white">
			<path d="M43.4272 58.586C53.0501 58.586 58.3125 50.6201 58.3125 43.7123C58.3125 43.486 58.3079 43.2608 58.2978 43.0366C59.3193 42.2987 60.2071 41.3779 60.9074 40.3296C59.97 40.746 58.9612 41.0262 57.903 41.1526C58.9832 40.5054 59.8124 39.4817 60.2036 38.2612C59.1928 38.86 58.0734 39.2952 56.8815 39.5302C55.9269 38.5141 54.5677 37.8785 53.0627 37.8785C50.1736 37.8785 47.8308 40.2196 47.8308 43.1054C47.8308 43.5156 47.8767 43.9146 47.9665 44.2973C43.6184 44.0787 39.7628 41.9986 37.1824 38.8356C36.7331 39.6081 36.474 40.5055 36.474 41.463C36.474 43.2766 37.3977 44.8777 38.8022 45.8144C37.9438 45.7879 37.1375 45.5525 36.4328 45.1606C36.432 45.1825 36.432 45.2039 36.432 45.2273C36.432 47.759 38.2354 49.8728 40.6292 50.3517C40.1896 50.4715 39.7271 50.5357 39.2497 50.5357C38.9131 50.5357 38.5852 50.5026 38.2664 50.4414C38.9325 52.5185 40.8638 54.03 43.1536 54.0722C41.363 55.4746 39.1074 56.3099 36.6559 56.3099C36.2341 56.3099 35.8175 56.2859 35.408 56.2375C37.7233 57.7204 40.4726 58.5857 43.4275 58.5857" />
		</mask>
		<path d="M58.2978 43.0366L57.7254 42.2442L57.2974 42.5534L57.3212 43.0808L58.2978 43.0366ZM60.9074 40.3296L61.7202 40.8726L63.595 38.0664L60.5106 39.4363L60.9074 40.3296ZM57.903 41.1526L57.4006 40.3141L58.019 42.1232L57.903 41.1526ZM60.2036 38.2612L61.1345 38.5596L61.9203 36.1082L59.7054 37.4202L60.2036 38.2612ZM56.8815 39.5302L56.1691 40.1995L56.5397 40.5939L57.0706 40.4892L56.8815 39.5302ZM47.9665 44.2973L47.9174 45.2736L49.2148 45.3389L48.9182 44.0742L47.9665 44.2973ZM37.1824 38.8356L37.9399 38.2176L37.0473 37.1235L36.3374 38.3441L37.1824 38.8356ZM38.8022 45.8144L38.772 46.7914L42.1871 46.8969L39.3445 45.0011L38.8022 45.8144ZM36.4328 45.1606L36.9079 44.3063L35.5119 43.53L35.4559 45.1263L36.4328 45.1606ZM40.6292 50.3517L40.8861 51.2949L40.821 49.3932L40.6292 50.3517ZM38.2664 50.4414L38.4507 49.4814L36.8325 49.1709L37.3356 50.7399L38.2664 50.4414ZM43.1536 54.0722L43.7563 54.8418L45.922 53.1456L43.1716 53.0949L43.1536 54.0722ZM35.408 56.2375L35.5227 55.2667L34.8808 57.0607L35.408 56.2375ZM43.4272 59.5635C53.7016 59.5635 59.29 51.0411 59.29 43.7123H57.335C57.335 50.199 52.3987 57.6085 43.4272 57.6085V59.5635ZM59.29 43.7123C59.29 43.4728 59.2852 43.2327 59.2743 42.9924L57.3212 43.0808C57.3307 43.2889 57.335 43.4993 57.335 43.7123H59.29ZM58.8701 43.829C59.986 43.023 60.9553 42.0177 61.7202 40.8726L60.0946 39.7866C59.459 40.7381 58.6525 41.5744 57.7254 42.2442L58.8701 43.829ZM60.5106 39.4363C59.6626 39.8129 58.7486 40.0672 57.7871 40.182L58.019 42.1232C59.1739 41.9853 60.2774 41.679 61.3042 41.223L60.5106 39.4363ZM58.4055 41.9911C59.6847 41.2246 60.6692 40.0112 61.1345 38.5596L59.2727 37.9629C58.9556 38.9522 58.2816 39.7862 57.4006 40.3141L58.4055 41.9911ZM59.7054 37.4202C58.7883 37.9635 57.7732 38.3581 56.6925 38.5711L57.0706 40.4892C58.3736 40.2324 59.5973 39.7565 60.7018 39.1023L59.7054 37.4202ZM57.5939 38.8608C56.462 37.6561 54.8483 36.901 53.0627 36.901V38.8561C54.2871 38.8561 55.3917 39.3721 56.1691 40.1995L57.5939 38.8608ZM53.0627 36.901C49.6346 36.901 46.8533 39.6789 46.8533 43.1054H48.8083C48.8083 40.7603 50.7127 38.8561 53.0627 38.8561V36.901ZM46.8533 43.1054C46.8533 43.5887 46.9074 44.0627 47.0148 44.5205L48.9182 44.0742C48.846 43.7665 48.8083 43.4425 48.8083 43.1054H46.8533ZM48.0156 43.3211C43.954 43.1169 40.3521 41.1746 37.9399 38.2176L36.425 39.4535C39.1735 42.8226 43.2827 45.0406 47.9174 45.2736L48.0156 43.3211ZM36.3374 38.3441C35.8044 39.2606 35.4965 40.3268 35.4965 41.463H37.4516C37.4516 40.6841 37.6618 39.9556 38.0274 39.327L36.3374 38.3441ZM35.4965 41.463C35.4965 43.6161 36.5942 45.5168 38.2598 46.6276L39.3445 45.0011C38.2011 44.2386 37.4516 42.9372 37.4516 41.463H35.4965ZM38.8323 44.8373C38.1351 44.8158 37.4808 44.6248 36.9079 44.3063L35.9578 46.0149C36.7943 46.4801 37.7526 46.76 38.772 46.7914L38.8323 44.8373ZM35.4559 45.1263C35.4544 45.1682 35.4545 45.2067 35.4545 45.2273H37.4095C37.4095 45.2149 37.4095 45.208 37.4096 45.202C37.4096 45.1967 37.4097 45.1948 37.4097 45.1949L35.4559 45.1263ZM35.4545 45.2273C35.4545 48.2342 37.5959 50.7417 40.4374 51.3103L40.821 49.3932C38.8749 49.0038 37.4095 47.2838 37.4095 45.2273H35.4545ZM40.3723 49.4086C40.0152 49.5059 39.639 49.5582 39.2497 49.5582V51.5132C39.8151 51.5132 40.364 51.4371 40.8861 51.2949L40.3723 49.4086ZM39.2497 49.5582C38.9776 49.5582 38.7113 49.5315 38.4507 49.4814L38.0822 51.4014C38.459 51.4737 38.8486 51.5132 39.2497 51.5132V49.5582ZM37.3356 50.7399C38.1261 53.205 40.417 54.9994 43.1356 55.0496L43.1716 53.0949C41.3107 53.0606 39.7389 51.832 39.1972 50.143L37.3356 50.7399ZM42.5509 53.3027C40.9264 54.5749 38.8815 55.3324 36.6559 55.3324V57.2874C39.3333 57.2874 41.7996 56.3743 43.7563 54.8418L42.5509 53.3027ZM36.6559 55.3324C36.2711 55.3324 35.8928 55.3105 35.5227 55.2667L35.2932 57.2083C35.7421 57.2613 36.1971 57.2874 36.6559 57.2874V55.3324ZM34.8808 57.0607C37.3475 58.6406 40.2788 59.5632 43.4275 59.5632V57.6082C40.6664 57.6082 38.0991 56.8003 35.9352 55.4144L34.8808 57.0607Z" fill="#0094FF" mask="url(#path-8-inside-1_219_1209)" />
	</g>
	<g style="mix-blend-mode:hard-light" filter="url(#filter8_f_219_1209)">
		<mask id="path-10-inside-2_219_1209" fill="white">
			<path d="M43.4272 58.586C53.0501 58.586 58.3125 50.6201 58.3125 43.7123C58.3125 43.486 58.3079 43.2608 58.2978 43.0366C59.3193 42.2987 60.2071 41.3779 60.9074 40.3296C59.97 40.746 58.9612 41.0262 57.903 41.1526C58.9832 40.5054 59.8124 39.4817 60.2036 38.2612C59.1928 38.86 58.0734 39.2952 56.8815 39.5302C55.9269 38.5141 54.5677 37.8785 53.0627 37.8785C50.1736 37.8785 47.8308 40.2196 47.8308 43.1054C47.8308 43.5156 47.8767 43.9146 47.9665 44.2973C43.6184 44.0787 39.7628 41.9986 37.1824 38.8356C36.7331 39.6081 36.474 40.5055 36.474 41.463C36.474 43.2766 37.3977 44.8777 38.8022 45.8144C37.9438 45.7879 37.1375 45.5525 36.4328 45.1606C36.432 45.1825 36.432 45.2039 36.432 45.2273C36.432 47.759 38.2354 49.8728 40.6292 50.3517C40.1896 50.4715 39.7271 50.5357 39.2497 50.5357C38.9131 50.5357 38.5852 50.5026 38.2664 50.4414C38.9325 52.5185 40.8638 54.03 43.1536 54.0722C41.363 55.4746 39.1074 56.3099 36.6559 56.3099C36.2341 56.3099 35.8175 56.2859 35.408 56.2375C37.7233 57.7204 40.4726 58.5857 43.4275 58.5857" />
		</mask>
		<path d="M58.2978 43.0366L57.5492 42.0004L56.9895 42.4047L57.0208 43.0944L58.2978 43.0366ZM60.9074 40.3296L61.9703 41.0397L64.4219 37.37L60.3885 39.1614L60.9074 40.3296ZM57.903 41.1526L57.246 40.0561L58.0546 42.4219L57.903 41.1526ZM60.2036 38.2612L61.4209 38.6514L62.4485 35.4457L59.5521 37.1614L60.2036 38.2612ZM56.8815 39.5302L55.9499 40.4055L56.4345 40.9212L57.1288 40.7843L56.8815 39.5302ZM47.9665 44.2973L47.9023 45.574L49.5989 45.6593L49.211 44.0055L47.9665 44.2973ZM37.1824 38.8356L38.1729 38.0275L37.0057 36.5968L36.0774 38.1929L37.1824 38.8356ZM38.8022 45.8144L38.7627 47.0921L43.2287 47.2299L39.5114 44.7509L38.8022 45.8144ZM36.4328 45.1606L37.054 44.0434L35.2286 43.0283L35.1553 45.1157L36.4328 45.1606ZM40.6292 50.3517L40.9652 51.5851L40.88 49.0983L40.6292 50.3517ZM38.2664 50.4414L38.5073 49.1861L36.3913 48.7799L37.0492 50.8318L38.2664 50.4414ZM43.1536 54.0722L43.9418 55.0786L46.7739 52.8605L43.1772 52.7942L43.1536 54.0722ZM35.408 56.2375L35.558 54.9681L34.7185 57.3139L35.408 56.2375ZM43.4272 59.8643C53.902 59.8643 59.5908 51.1707 59.5908 43.7123H57.0342C57.0342 50.0695 52.1982 57.3077 43.4272 57.3077V59.8643ZM59.5908 43.7123C59.5908 43.4687 59.5858 43.2241 59.5747 42.9787L57.0208 43.0944C57.03 43.2975 57.0342 43.5034 57.0342 43.7123H59.5908ZM59.0463 44.0728C60.1911 43.2458 61.1855 42.2146 61.9703 41.0397L59.8445 39.6196C59.2288 40.5412 58.4474 41.3516 57.5492 42.0004L59.0463 44.0728ZM60.3885 39.1614C59.568 39.5258 58.6831 39.7721 57.7515 39.8834L58.0546 42.4219C59.2394 42.2804 60.372 41.9661 61.4263 41.4979L60.3885 39.1614ZM58.56 42.2491C59.9006 41.4459 60.9328 40.1741 61.4209 38.6514L58.9863 37.871C58.692 38.7893 58.0658 39.5649 57.246 40.0561L58.56 42.2491ZM59.5521 37.1614C58.6638 37.6876 57.6808 38.0697 56.6343 38.276L57.1288 40.7843C58.466 40.5207 59.7217 40.0324 60.8551 39.361L59.5521 37.1614ZM57.8131 38.6549C56.6267 37.3921 54.9347 36.6003 53.0627 36.6003V39.1568C54.2008 39.1568 55.227 39.636 55.9499 40.4055L57.8131 38.6549ZM53.0627 36.6003C49.4688 36.6003 46.5525 39.5126 46.5525 43.1054H49.1091C49.1091 40.9267 50.8785 39.1568 53.0627 39.1568V36.6003ZM46.5525 43.1054C46.5525 43.6112 46.6092 44.1082 46.722 44.5892L49.211 44.0055C49.1443 43.721 49.1091 43.42 49.1091 43.1054H46.5525ZM48.0307 43.0207C44.0573 42.8209 40.5334 40.921 38.1729 38.0275L36.1919 39.6436C38.9921 43.0761 43.1795 45.3366 47.9023 45.574L48.0307 43.0207ZM36.0774 38.1929C35.5186 39.1537 35.1958 40.2719 35.1958 41.463H37.7523C37.7523 40.7391 37.9476 40.0625 38.2874 39.4782L36.0774 38.1929ZM35.1958 41.463C35.1958 43.7206 36.347 45.7135 38.0929 46.8779L39.5114 44.7509C38.4484 44.042 37.7523 42.8327 37.7523 41.463H35.1958ZM38.8416 44.5367C38.1939 44.5167 37.5864 44.3394 37.054 44.0434L35.8116 46.2778C36.6887 46.7655 37.6937 47.0591 38.7627 47.0921L38.8416 44.5367ZM35.1553 45.1157C35.1536 45.1638 35.1537 45.2076 35.1537 45.2273H37.7103C37.7103 45.2213 37.7103 45.2169 37.7103 45.2129C37.7103 45.209 37.7103 45.2064 37.7104 45.2046C37.7104 45.2011 37.7104 45.202 37.7103 45.2054L35.1553 45.1157ZM35.1537 45.2273C35.1537 48.3804 37.3991 51.0091 40.3784 51.6052L40.88 49.0983C39.0716 48.7365 37.7103 47.1376 37.7103 45.2273H35.1537ZM40.2932 49.1184C39.9615 49.2088 39.612 49.2574 39.2497 49.2574V51.814C39.8422 51.814 40.4176 51.7342 40.9652 51.5851L40.2932 49.1184ZM39.2497 49.2574C38.9974 49.2574 38.7501 49.2327 38.5073 49.1861L38.0255 51.6968C38.4202 51.7725 38.8288 51.814 39.2497 51.814V49.2574ZM37.0492 50.8318C37.8779 53.4162 40.2795 55.2977 43.13 55.3503L43.1772 52.7942C41.4482 52.7623 39.987 51.6208 39.4837 50.0511L37.0492 50.8318ZM42.3654 53.0659C40.7921 54.2981 38.812 55.0316 36.6559 55.0316V57.5881C39.4028 57.5881 41.934 56.6511 43.9418 55.0786L42.3654 53.0659ZM36.6559 55.0316C36.2825 55.0316 35.916 55.0104 35.558 54.9681L35.2579 57.507C35.7189 57.5614 36.1857 57.5881 36.6559 57.5881V55.0316ZM34.7185 57.3139C37.2319 58.9237 40.2191 59.864 43.4275 59.864V57.3074C40.7261 57.3074 38.2148 56.5172 36.0974 55.1611L34.7185 57.3139Z" fill="#0094FF" mask="url(#path-10-inside-2_219_1209)" />
	</g>
	<g style="mix-blend-mode:hard-light" filter="url(#filter9_ddi_219_1209)">
		<mask id="path-12-inside-3_219_1209" fill="white">
			<path d="M43.4272 58.586C53.0501 58.586 58.3125 50.6201 58.3125 43.7123C58.3125 43.486 58.3079 43.2608 58.2978 43.0366C59.3193 42.2987 60.2071 41.3779 60.9074 40.3296C59.97 40.746 58.9612 41.0262 57.903 41.1526C58.9832 40.5054 59.8124 39.4817 60.2036 38.2612C59.1928 38.86 58.0734 39.2952 56.8815 39.5302C55.9269 38.5141 54.5677 37.8785 53.0627 37.8785C50.1736 37.8785 47.8308 40.2196 47.8308 43.1054C47.8308 43.5156 47.8767 43.9146 47.9665 44.2973C43.6184 44.0787 39.7628 41.9986 37.1824 38.8356C36.7331 39.6081 36.474 40.5055 36.474 41.463C36.474 43.2766 37.3977 44.8777 38.8022 45.8144C37.9438 45.7879 37.1375 45.5525 36.4328 45.1606C36.432 45.1825 36.432 45.2039 36.432 45.2273C36.432 47.759 38.2354 49.8728 40.6292 50.3517C40.1896 50.4715 39.7271 50.5357 39.2497 50.5357C38.9131 50.5357 38.5852 50.5026 38.2664 50.4414C38.9325 52.5185 40.8638 54.03 43.1536 54.0722C41.363 55.4746 39.1074 56.3099 36.6559 56.3099C36.2341 56.3099 35.8175 56.2859 35.408 56.2375C37.7233 57.7204 40.4726 58.5857 43.4275 58.5857" />
		</mask>
		<path d="M58.2978 43.0366L57.7254 42.2442L57.2974 42.5534L57.3212 43.0808L58.2978 43.0366ZM60.9074 40.3296L61.7202 40.8726L63.595 38.0664L60.5106 39.4363L60.9074 40.3296ZM57.903 41.1526L57.4006 40.3141L58.019 42.1232L57.903 41.1526ZM60.2036 38.2612L61.1345 38.5596L61.9203 36.1082L59.7054 37.4202L60.2036 38.2612ZM56.8815 39.5302L56.1691 40.1995L56.5397 40.5939L57.0706 40.4892L56.8815 39.5302ZM47.9665 44.2973L47.9174 45.2736L49.2148 45.3389L48.9182 44.0742L47.9665 44.2973ZM37.1824 38.8356L37.9399 38.2176L37.0473 37.1235L36.3374 38.3441L37.1824 38.8356ZM38.8022 45.8144L38.772 46.7914L42.1871 46.8969L39.3445 45.0011L38.8022 45.8144ZM36.4328 45.1606L36.9079 44.3063L35.5119 43.53L35.4559 45.1263L36.4328 45.1606ZM40.6292 50.3517L40.8861 51.2949L40.821 49.3932L40.6292 50.3517ZM38.2664 50.4414L38.4507 49.4814L36.8325 49.1709L37.3356 50.7399L38.2664 50.4414ZM43.1536 54.0722L43.7563 54.8418L45.922 53.1456L43.1716 53.0949L43.1536 54.0722ZM35.408 56.2375L35.5227 55.2667L34.8808 57.0607L35.408 56.2375ZM43.4272 59.5635C53.7016 59.5635 59.29 51.0411 59.29 43.7123H57.335C57.335 50.199 52.3987 57.6085 43.4272 57.6085V59.5635ZM59.29 43.7123C59.29 43.4728 59.2852 43.2327 59.2743 42.9924L57.3212 43.0808C57.3307 43.2889 57.335 43.4993 57.335 43.7123H59.29ZM58.8701 43.829C59.986 43.023 60.9553 42.0177 61.7202 40.8726L60.0946 39.7866C59.459 40.7381 58.6525 41.5744 57.7254 42.2442L58.8701 43.829ZM60.5106 39.4363C59.6626 39.8129 58.7486 40.0672 57.7871 40.182L58.019 42.1232C59.1739 41.9853 60.2774 41.679 61.3042 41.223L60.5106 39.4363ZM58.4055 41.9911C59.6847 41.2246 60.6692 40.0112 61.1345 38.5596L59.2727 37.9629C58.9556 38.9522 58.2816 39.7862 57.4006 40.3141L58.4055 41.9911ZM59.7054 37.4202C58.7883 37.9635 57.7732 38.3581 56.6925 38.5711L57.0706 40.4892C58.3736 40.2324 59.5973 39.7565 60.7018 39.1023L59.7054 37.4202ZM57.5939 38.8608C56.462 37.6561 54.8483 36.901 53.0627 36.901V38.8561C54.2871 38.8561 55.3917 39.3721 56.1691 40.1995L57.5939 38.8608ZM53.0627 36.901C49.6346 36.901 46.8533 39.6789 46.8533 43.1054H48.8083C48.8083 40.7603 50.7127 38.8561 53.0627 38.8561V36.901ZM46.8533 43.1054C46.8533 43.5887 46.9074 44.0627 47.0148 44.5205L48.9182 44.0742C48.846 43.7665 48.8083 43.4425 48.8083 43.1054H46.8533ZM48.0156 43.3211C43.954 43.1169 40.3521 41.1746 37.9399 38.2176L36.425 39.4535C39.1735 42.8226 43.2827 45.0406 47.9174 45.2736L48.0156 43.3211ZM36.3374 38.3441C35.8044 39.2606 35.4965 40.3268 35.4965 41.463H37.4516C37.4516 40.6841 37.6618 39.9556 38.0274 39.327L36.3374 38.3441ZM35.4965 41.463C35.4965 43.6161 36.5942 45.5168 38.2598 46.6276L39.3445 45.0011C38.2011 44.2386 37.4516 42.9372 37.4516 41.463H35.4965ZM38.8323 44.8373C38.1351 44.8158 37.4808 44.6248 36.9079 44.3063L35.9578 46.0149C36.7943 46.4801 37.7526 46.76 38.772 46.7914L38.8323 44.8373ZM35.4559 45.1263C35.4544 45.1682 35.4545 45.2067 35.4545 45.2273H37.4095C37.4095 45.2149 37.4095 45.208 37.4096 45.202C37.4096 45.1967 37.4097 45.1948 37.4097 45.1949L35.4559 45.1263ZM35.4545 45.2273C35.4545 48.2342 37.5959 50.7417 40.4374 51.3103L40.821 49.3932C38.8749 49.0038 37.4095 47.2838 37.4095 45.2273H35.4545ZM40.3723 49.4086C40.0152 49.5059 39.639 49.5582 39.2497 49.5582V51.5132C39.8151 51.5132 40.364 51.4371 40.8861 51.2949L40.3723 49.4086ZM39.2497 49.5582C38.9776 49.5582 38.7113 49.5315 38.4507 49.4814L38.0822 51.4014C38.459 51.4737 38.8486 51.5132 39.2497 51.5132V49.5582ZM37.3356 50.7399C38.1261 53.205 40.417 54.9994 43.1356 55.0496L43.1716 53.0949C41.3107 53.0606 39.7389 51.832 39.1972 50.143L37.3356 50.7399ZM42.5509 53.3027C40.9264 54.5749 38.8815 55.3324 36.6559 55.3324V57.2874C39.3333 57.2874 41.7996 56.3743 43.7563 54.8418L42.5509 53.3027ZM36.6559 55.3324C36.2711 55.3324 35.8928 55.3105 35.5227 55.2667L35.2932 57.2083C35.7421 57.2613 36.1971 57.2874 36.6559 57.2874V55.3324ZM34.8808 57.0607C37.3475 58.6406 40.2788 59.5632 43.4275 59.5632V57.6082C40.6664 57.6082 38.0991 56.8003 35.9352 55.4144L34.8808 57.0607Z" fill="#00B3FF" fill-opacity="0.2" mask="url(#path-12-inside-3_219_1209)" />
	</g>
	<g filter="url(#filter10_f_219_1209)">
		<mask id="path-14-inside-4_219_1209" fill="white">
			<path d="M43.4272 58.586C53.0501 58.586 58.3125 50.6201 58.3125 43.7123C58.3125 43.486 58.3079 43.2608 58.2978 43.0366C59.3193 42.2987 60.2071 41.3779 60.9074 40.3296C59.97 40.746 58.9612 41.0262 57.903 41.1526C58.9832 40.5054 59.8124 39.4817 60.2036 38.2612C59.1928 38.86 58.0734 39.2952 56.8815 39.5302C55.9269 38.5141 54.5677 37.8785 53.0627 37.8785C50.1736 37.8785 47.8308 40.2196 47.8308 43.1054C47.8308 43.5156 47.8767 43.9146 47.9665 44.2973C43.6184 44.0787 39.7628 41.9986 37.1824 38.8356C36.7331 39.6081 36.474 40.5055 36.474 41.463C36.474 43.2766 37.3977 44.8777 38.8022 45.8144C37.9438 45.7879 37.1375 45.5525 36.4328 45.1606C36.432 45.1825 36.432 45.2039 36.432 45.2273C36.432 47.759 38.2354 49.8728 40.6292 50.3517C40.1896 50.4715 39.7271 50.5357 39.2497 50.5357C38.9131 50.5357 38.5852 50.5026 38.2664 50.4414C38.9325 52.5185 40.8638 54.03 43.1536 54.0722C41.363 55.4746 39.1074 56.3099 36.6559 56.3099C36.2341 56.3099 35.8175 56.2859 35.408 56.2375C37.7233 57.7204 40.4726 58.5857 43.4275 58.5857" />
		</mask>
		<path d="M58.2978 43.0366L57.9455 42.549L57.6821 42.7392L57.6968 43.0638L58.2978 43.0366ZM60.9074 40.3296L61.4076 40.6638L62.5613 38.9369L60.6632 39.7799L60.9074 40.3296ZM57.903 41.1526L57.5939 40.6366L57.9744 41.7499L57.903 41.1526ZM60.2036 38.2612L60.7764 38.4449L61.26 36.9363L59.897 37.7437L60.2036 38.2612ZM56.8815 39.5302L56.4431 39.9421L56.6712 40.1848L56.9979 40.1203L56.8815 39.5302ZM47.9665 44.2973L47.9363 44.8981L48.7347 44.9383L48.5521 44.16L47.9665 44.2973ZM37.1824 38.8356L37.6485 38.4553L37.0993 37.782L36.6624 38.5331L37.1824 38.8356ZM38.8022 45.8144L38.7836 46.4156L40.8852 46.4805L39.1359 45.3139L38.8022 45.8144ZM36.4328 45.1606L36.7251 44.6348L35.8661 44.1572L35.8316 45.1395L36.4328 45.1606ZM40.6292 50.3517L40.7873 50.9321L40.7472 49.7619L40.6292 50.3517ZM38.2664 50.4414L38.3798 49.8507L37.384 49.6596L37.6936 50.6251L38.2664 50.4414ZM43.1536 54.0722L43.5245 54.5458L44.8573 53.502L43.1647 53.4708L43.1536 54.0722ZM35.408 56.2375L35.4786 55.6401L35.0835 56.7441L35.408 56.2375ZM43.4272 59.1876C53.451 59.1876 58.9141 50.8792 58.9141 43.7123H57.711C57.711 50.361 52.6492 57.9845 43.4272 57.9845V59.1876ZM58.9141 43.7123C58.9141 43.4779 58.9093 43.2435 58.8987 43.0094L57.6968 43.0638C57.7065 43.2781 57.711 43.4942 57.711 43.7123H58.9141ZM58.65 43.5242C59.7295 42.7444 60.6675 41.7716 61.4076 40.6638L60.4072 39.9955C59.7467 40.9841 58.909 41.853 57.9455 42.549L58.65 43.5242ZM60.6632 39.7799C59.7808 40.1718 58.8304 40.4361 57.8317 40.5553L57.9744 41.7499C59.0921 41.6164 60.1592 41.3202 61.1516 40.8794L60.6632 39.7799ZM58.2122 41.6686C59.4149 40.948 60.3396 39.8075 60.7764 38.4449L59.6308 38.0776C59.2851 39.1558 58.5514 40.0629 57.5939 40.6366L58.2122 41.6686ZM59.897 37.7437C58.9439 38.3083 57.8887 38.7185 56.7652 38.94L56.9979 40.1203C58.2581 39.8719 59.4417 39.4117 60.5102 38.7788L59.897 37.7437ZM57.3199 39.1183C56.2562 37.9861 54.7404 37.277 53.0627 37.277V38.4801C54.395 38.4801 55.5975 39.0421 56.4431 39.9421L57.3199 39.1183ZM53.0627 37.277C49.8419 37.277 47.2293 39.8869 47.2293 43.1054H48.4324C48.4324 40.5524 50.5054 38.4801 53.0627 38.4801V37.277ZM47.2293 43.1054C47.2293 43.5606 47.2802 44.0057 47.3808 44.4347L48.5521 44.16C48.4732 43.8235 48.4324 43.4706 48.4324 43.1054H47.2293ZM47.9967 43.6966C43.8249 43.4868 40.1254 41.4915 37.6485 38.4553L36.7163 39.2158C39.4001 42.5056 43.4118 44.6706 47.9363 44.8981L47.9967 43.6966ZM36.6624 38.5331C36.1616 39.3943 35.8725 40.3955 35.8725 41.463H37.0756C37.0756 40.6154 37.3046 39.8219 37.7024 39.138L36.6624 38.5331ZM35.8725 41.463C35.8725 43.4856 36.9032 45.271 38.4684 46.3148L39.1359 45.3139C37.8921 44.4844 37.0756 43.0677 37.0756 41.463H35.8725ZM38.8207 45.2131C38.0615 45.1897 37.3488 44.9816 36.7251 44.6348L36.1405 45.6863C36.9263 46.1233 37.8261 46.3861 38.7836 46.4156L38.8207 45.2131ZM35.8316 45.1395C35.8304 45.1737 35.8305 45.2056 35.8305 45.2273H37.0336C37.0336 45.2022 37.0336 45.1913 37.034 45.1817L35.8316 45.1395ZM35.8305 45.2273C35.8305 48.0515 37.8418 50.4075 40.5112 50.9416L40.7472 49.7619C38.6289 49.338 37.0336 47.4666 37.0336 45.2273H35.8305ZM40.4711 49.7713C40.0823 49.8773 39.6729 49.9342 39.2497 49.9342V51.1372C39.7812 51.1372 40.2969 51.0657 40.7873 50.9321L40.4711 49.7713ZM39.2497 49.9342C38.9528 49.9342 38.6628 49.905 38.3798 49.8507L38.153 51.0322C38.5075 51.1002 38.8734 51.1372 39.2497 51.1372V49.9342ZM37.6936 50.6251C38.4362 52.941 40.5888 54.6266 43.1425 54.6737L43.1647 53.4708C41.1388 53.4334 39.4287 52.0961 38.8392 50.2578L37.6936 50.6251ZM42.7827 53.5986C41.0943 54.921 38.9684 55.7083 36.6559 55.7083V56.9114C39.2464 56.9114 41.6317 56.0283 43.5245 54.5458L42.7827 53.5986ZM36.6559 55.7083C36.2569 55.7083 35.8638 55.6856 35.4786 55.6401L35.3374 56.8349C35.7711 56.8861 36.2113 56.9114 36.6559 56.9114V55.7083ZM35.0835 56.7441C37.4921 58.2867 40.3533 59.1872 43.4275 59.1872V57.9842C40.5919 57.9842 37.9546 57.1542 35.7324 55.7309L35.0835 56.7441Z" fill="#82D9FF" mask="url(#path-14-inside-4_219_1209)" />
	</g>
	<g filter="url(#filter11_f_219_1209)">
		<mask id="path-16-inside-5_219_1209" fill="white">
			<path d="M43.4272 58.586C53.0501 58.586 58.3125 50.6201 58.3125 43.7123C58.3125 43.486 58.3079 43.2608 58.2978 43.0366C59.3193 42.2987 60.2071 41.3779 60.9074 40.3296C59.97 40.746 58.9612 41.0262 57.903 41.1526C58.9832 40.5054 59.8124 39.4817 60.2036 38.2612C59.1928 38.86 58.0734 39.2952 56.8815 39.5302C55.9269 38.5141 54.5677 37.8785 53.0627 37.8785C50.1736 37.8785 47.8308 40.2196 47.8308 43.1054C47.8308 43.5156 47.8767 43.9146 47.9665 44.2973C43.6184 44.0787 39.7628 41.9986 37.1824 38.8356C36.7331 39.6081 36.474 40.5055 36.474 41.463C36.474 43.2766 37.3977 44.8777 38.8022 45.8144C37.9438 45.7879 37.1375 45.5525 36.4328 45.1606C36.432 45.1825 36.432 45.2039 36.432 45.2273C36.432 47.759 38.2354 49.8728 40.6292 50.3517C40.1896 50.4715 39.7271 50.5357 39.2497 50.5357C38.9131 50.5357 38.5852 50.5026 38.2664 50.4414C38.9325 52.5185 40.8638 54.03 43.1536 54.0722C41.363 55.4746 39.1074 56.3099 36.6559 56.3099C36.2341 56.3099 35.8175 56.2859 35.408 56.2375C37.7233 57.7204 40.4726 58.5857 43.4275 58.5857" />
		</mask>
		<path d="M58.2978 43.0366L58.1216 42.7928L57.9899 42.8879L57.9973 43.0502L58.2978 43.0366ZM60.9074 40.3296L61.1575 40.4967L61.7343 39.6333L60.7853 40.0548L60.9074 40.3296ZM57.903 41.1526L57.7484 40.8946L57.9387 41.4513L57.903 41.1526ZM60.2036 38.2612L60.49 38.3531L60.7318 37.5988L60.0503 38.0025L60.2036 38.2612ZM56.8815 39.5302L56.6623 39.7361L56.7763 39.8575L56.9397 39.8253L56.8815 39.5302ZM47.9665 44.2973L47.9514 44.5977L48.3506 44.6178L48.2593 44.2287L47.9665 44.2973ZM37.1824 38.8356L37.4155 38.6454L37.1408 38.3088L36.9224 38.6843L37.1824 38.8356ZM38.8022 45.8144L38.7929 46.115L39.8437 46.1475L38.969 45.5642L38.8022 45.8144ZM36.4328 45.1606L36.579 44.8977L36.1495 44.6589L36.1322 45.15L36.4328 45.1606ZM40.6292 50.3517L40.7083 50.6419L40.6882 50.0568L40.6292 50.3517ZM38.2664 50.4414L38.3231 50.146L37.8252 50.0505L37.98 50.5333L38.2664 50.4414ZM43.1536 54.0722L43.3391 54.309L44.0054 53.7871L43.1592 53.7715L43.1536 54.0722ZM35.408 56.2375L35.4433 55.9388L35.2457 56.4908L35.408 56.2375ZM43.4272 58.8868C53.2506 58.8868 58.6133 50.7496 58.6133 43.7123H58.0118C58.0118 50.4905 52.8497 58.2853 43.4272 58.2853V58.8868ZM58.6133 43.7123C58.6133 43.482 58.6086 43.2522 58.5982 43.023L57.9973 43.0502C58.0072 43.2694 58.0118 43.4901 58.0118 43.7123H58.6133ZM58.4739 43.2804C59.5244 42.5216 60.4373 41.5747 61.1575 40.4967L60.6573 40.1626C59.9769 41.181 59.1141 42.0759 58.1216 42.7928L58.4739 43.2804ZM60.7853 40.0548C59.8754 40.4589 58.8958 40.7312 57.8674 40.854L57.9387 41.4513C59.0267 41.3213 60.0646 41.0331 61.0295 40.6045L60.7853 40.0548ZM58.0576 41.4106C59.199 40.7267 60.076 39.6446 60.49 38.3531L59.9172 38.1694C59.5488 39.3188 58.7673 40.2842 57.7484 40.8946L58.0576 41.4106ZM60.0503 38.0025C59.0683 38.5842 57.981 39.0069 56.8234 39.2351L56.9397 39.8253C58.1658 39.5836 59.3173 39.1359 60.3569 38.52L60.0503 38.0025ZM57.1007 39.3242C56.0915 38.2501 54.654 37.5778 53.0627 37.5778V38.1793C54.4814 38.1793 55.7622 38.7781 56.6623 39.7361L57.1007 39.3242ZM53.0627 37.5778C50.0078 37.5778 47.53 40.0533 47.53 43.1054H48.1316C48.1316 40.386 50.3395 38.1793 53.0627 38.1793V37.5778ZM47.53 43.1054C47.53 43.5381 47.5785 43.9602 47.6736 44.366L48.2593 44.2287C48.175 43.8691 48.1316 43.4931 48.1316 43.1054H47.53ZM47.9816 43.997C43.7216 43.7828 39.9441 41.745 37.4155 38.6454L36.9494 39.0257C39.5815 42.2521 43.5151 44.3747 47.9514 44.5977L47.9816 43.997ZM36.9224 38.6843C36.4474 39.5012 36.1733 40.4505 36.1733 41.463H36.7748C36.7748 40.5604 37.0189 39.715 37.4424 38.9868L36.9224 38.6843ZM36.1733 41.463C36.1733 43.3811 37.1504 45.0744 38.6353 46.0646L38.969 45.5642C37.6449 44.6811 36.7748 43.1722 36.7748 41.463H36.1733ZM38.8114 45.5138C38.0027 45.4888 37.2431 45.267 36.579 44.8977L36.2866 45.4234C37.0319 45.8379 37.885 46.087 38.7929 46.115L38.8114 45.5138ZM36.1322 45.15C36.1312 45.1781 36.1313 45.2048 36.1313 45.2273H36.7328C36.7328 45.203 36.7328 45.1869 36.7334 45.1711L36.1322 45.15ZM36.1313 45.2273C36.1313 47.9052 38.0386 50.1401 40.5702 50.6467L40.6882 50.0568C38.4321 49.6054 36.7328 47.6128 36.7328 45.2273H36.1313ZM40.5501 50.0615C40.1359 50.1744 39.7 50.2349 39.2497 50.2349V50.8365C39.7541 50.8365 40.2432 50.7686 40.7083 50.6419L40.5501 50.0615ZM39.2497 50.2349C38.9329 50.2349 38.624 50.2038 38.3231 50.146L38.2097 50.7368C38.5463 50.8014 38.8933 50.8365 39.2497 50.8365V50.2349ZM37.98 50.5333C38.6843 52.7297 40.7263 54.3283 43.1481 54.3729L43.1592 53.7715C41.0013 53.7317 39.1806 52.3073 38.5528 50.3496L37.98 50.5333ZM42.9681 53.8354C41.2287 55.1978 39.0379 56.0091 36.6559 56.0091V56.6106C39.1769 56.6106 41.4974 55.7514 43.3391 54.309L42.9681 53.8354ZM36.6559 56.0091C36.2455 56.0091 35.8406 55.9858 35.4433 55.9388L35.3727 56.5362C35.7943 56.586 36.2227 56.6106 36.6559 56.6106V56.0091ZM35.2457 56.4908C37.6077 58.0035 40.413 58.8865 43.4275 58.8865V58.2849C40.5323 58.2849 37.839 57.4373 35.5702 55.9842L35.2457 56.4908Z" fill="white" mask="url(#path-16-inside-5_219_1209)" />
	</g>
	<defs>
		<filter id="filter0_f_219_1209" x="10.0828" y="9.82837" width="76.3604" height="76.3604" filterUnits="userSpaceOnUse" color-interpolation-filters="sRGB">
			<feFlood flood-opacity="0" result="BackgroundImageFix" />
			<feBlend mode="normal" in="SourceGraphic" in2="BackgroundImageFix" result="shape" />
			<feGaussianBlur stdDeviation="4.6875" result="effect1_foregroundBlur_219_1209" />
		</filter>
		<filter id="filter1_f_219_1209" x="14.8835" y="14.6292" width="66.7585" height="66.7585" filterUnits="userSpaceOnUse" color-interpolation-filters="sRGB">
			<feFlood flood-opacity="0" result="BackgroundImageFix" />
			<feBlend mode="normal" in="SourceGraphic" in2="BackgroundImageFix" result="shape" />
			<feGaussianBlur stdDeviation="4.6875" result="effect1_foregroundBlur_219_1209" />
		</filter>
		<filter id="filter2_f_219_1209" x="21.1335" y="20.8792" width="54.2585" height="54.2585" filterUnits="userSpaceOnUse" color-interpolation-filters="sRGB">
			<feFlood flood-opacity="0" result="BackgroundImageFix" />
			<feBlend mode="normal" in="SourceGraphic" in2="BackgroundImageFix" result="shape" />
			<feGaussianBlur stdDeviation="1.5625" result="effect1_foregroundBlur_219_1209" />
		</filter>
		<filter id="filter3_ddi_219_1209" x="20.196" y="23.0667" width="56.1335" height="56.1335" filterUnits="userSpaceOnUse" color-interpolation-filters="sRGB">
			<feFlood flood-opacity="0" result="BackgroundImageFix" />
			<feColorMatrix in="SourceAlpha" type="matrix" values="0 0 0 0 0 0 0 0 0 0 0 0 0 0 0 0 0 0 127 0" result="hardAlpha" />
			<feOffset dy="2.03125" />
			<feGaussianBlur stdDeviation="0.78125" />
			<feColorMatrix type="matrix" values="0 0 0 0 0 0 0 0 0 0.051 0 0 0 0 0.082 0 0 0 0.7 0" />
			<feBlend mode="multiply" in2="BackgroundImageFix" result="effect1_dropShadow_219_1209" />
			<feColorMatrix in="SourceAlpha" type="matrix" values="0 0 0 0 0 0 0 0 0 0 0 0 0 0 0 0 0 0 127 0" result="hardAlpha" />
			<feOffset dy="3.125" />
			<feGaussianBlur stdDeviation="2.03125" />
			<feColorMatrix type="matrix" values="0 0 0 0 0 0 0 0 0 0.4 0 0 0 0 1 0 0 0 1 0" />
			<feBlend mode="color-dodge" in2="effect1_dropShadow_219_1209" result="effect2_dropShadow_219_1209" />
			<feBlend mode="normal" in="SourceGraphic" in2="effect2_dropShadow_219_1209" result="shape" />
			<feColorMatrix in="SourceAlpha" type="matrix" values="0 0 0 0 0 0 0 0 0 0 0 0 0 0 0 0 0 0 127 0" result="hardAlpha" />
			<feOffset dx="-0.203125" dy="0.40625" />
			<feGaussianBlur stdDeviation="0.101562" />
			<feComposite in2="hardAlpha" operator="arithmetic" k2="-1" k3="1" />
			<feColorMatrix type="matrix" values="0 0 0 0 1 0 0 0 0 1 0 0 0 0 1 0 0 0 0.5 0" />
			<feBlend mode="normal" in2="shape" result="effect3_innerShadow_219_1209" />
		</filter>
		<filter id="filter4_f_219_1209" x="23.946" y="23.6917" width="48.6335" height="48.6335" filterUnits="userSpaceOnUse" color-interpolation-filters="sRGB">
			<feFlood flood-opacity="0" result="BackgroundImageFix" />
			<feBlend mode="normal" in="SourceGraphic" in2="BackgroundImageFix" result="shape" />
			<feGaussianBlur stdDeviation="0.15625" result="effect1_foregroundBlur_219_1209" />
		</filter>
		<filter id="filter5_f_219_1209" x="24.0502" y="23.7958" width="48.4252" height="48.4252" filterUnits="userSpaceOnUse" color-interpolation-filters="sRGB">
			<feFlood flood-opacity="0" result="BackgroundImageFix" />
			<feBlend mode="normal" in="SourceGraphic" in2="BackgroundImageFix" result="shape" />
			<feGaussianBlur stdDeviation="0.104167" result="effect1_foregroundBlur_219_1209" />
		</filter>
		<filter id="filter6_f_219_1209" x="28.3463" y="31.2963" width="39.6225" height="33.8722" filterUnits="userSpaceOnUse" color-interpolation-filters="sRGB">
			<feFlood flood-opacity="0" result="BackgroundImageFix" />
			<feBlend mode="normal" in="SourceGraphic" in2="BackgroundImageFix" result="shape" />
			<feGaussianBlur stdDeviation="2.25579" result="effect1_foregroundBlur_219_1209" />
		</filter>
		<filter id="filter7_f_219_1209" x="30.8964" y="33.367" width="34.5227" height="29.7307" filterUnits="userSpaceOnUse" color-interpolation-filters="sRGB">
			<feFlood flood-opacity="0" result="BackgroundImageFix" />
			<feBlend mode="normal" in="SourceGraphic" in2="BackgroundImageFix" result="shape" />
			<feGaussianBlur stdDeviation="2.25579" result="effect1_foregroundBlur_219_1209" />
		</filter>
		<filter id="filter8_f_219_1209" x="33.9041" y="36.3747" width="28.5072" height="23.7152" filterUnits="userSpaceOnUse" color-interpolation-filters="sRGB">
			<feFlood flood-opacity="0" result="BackgroundImageFix" />
			<feBlend mode="normal" in="SourceGraphic" in2="BackgroundImageFix" result="shape" />
			<feGaussianBlur stdDeviation="0.751931" result="effect1_foregroundBlur_219_1209" />
		</filter>
		<filter id="filter9_ddi_219_1209" x="33.4529" y="37.4274" width="29.4096" height="24.6176" filterUnits="userSpaceOnUse" color-interpolation-filters="sRGB">
			<feFlood flood-opacity="0" result="BackgroundImageFix" />
			<feColorMatrix in="SourceAlpha" type="matrix" values="0 0 0 0 0 0 0 0 0 0 0 0 0 0 0 0 0 0 127 0" result="hardAlpha" />
			<feOffset dy="0.977511" />
			<feGaussianBlur stdDeviation="0.375966" />
			<feColorMatrix type="matrix" values="0 0 0 0 0 0 0 0 0 0.051 0 0 0 0 0.082 0 0 0 0.7 0" />
			<feBlend mode="multiply" in2="BackgroundImageFix" result="effect1_dropShadow_219_1209" />
			<feColorMatrix in="SourceAlpha" type="matrix" values="0 0 0 0 0 0 0 0 0 0 0 0 0 0 0 0 0 0 127 0" result="hardAlpha" />
			<feOffset dy="1.50386" />
			<feGaussianBlur stdDeviation="0.977511" />
			<feColorMatrix type="matrix" values="0 0 0 0 0 0 0 0 0 0.4 0 0 0 0 1 0 0 0 1 0" />
			<feBlend mode="color-dodge" in2="effect1_dropShadow_219_1209" result="effect2_dropShadow_219_1209" />
			<feBlend mode="normal" in="SourceGraphic" in2="effect2_dropShadow_219_1209" result="shape" />
			<feColorMatrix in="SourceAlpha" type="matrix" values="0 0 0 0 0 0 0 0 0 0 0 0 0 0 0 0 0 0 127 0" result="hardAlpha" />
			<feOffset dx="-0.0977511" dy="0.195502" />
			<feGaussianBlur stdDeviation="0.0488755" />
			<feComposite in2="hardAlpha" operator="arithmetic" k2="-1" k3="1" />
			<feColorMatrix type="matrix" values="0 0 0 0 1 0 0 0 0 1 0 0 0 0 1 0 0 0 0.5 0" />
			<feBlend mode="normal" in2="shape" result="effect3_innerShadow_219_1209" />
		</filter>
		<filter id="filter10_f_219_1209" x="35.2576" y="37.7282" width="25.8003" height="21.0083" filterUnits="userSpaceOnUse" color-interpolation-filters="sRGB">
			<feFlood flood-opacity="0" result="BackgroundImageFix" />
			<feBlend mode="normal" in="SourceGraphic" in2="BackgroundImageFix" result="shape" />
			<feGaussianBlur stdDeviation="0.0751931" result="effect1_foregroundBlur_219_1209" />
		</filter>
		<filter id="filter11_f_219_1209" x="35.3077" y="37.7783" width="25.7" height="20.908" filterUnits="userSpaceOnUse" color-interpolation-filters="sRGB">
			<feFlood flood-opacity="0" result="BackgroundImageFix" />
			<feBlend mode="normal" in="SourceGraphic" in2="BackgroundImageFix" result="shape" />
			<feGaussianBlur stdDeviation="0.0501288" result="effect1_foregroundBlur_219_1209" />
		</filter>
	</defs>
</svg>
