<svg width="97" height="97" viewBox="0 0 97 97" fill="none" xmlns="http://www.w3.org/2000/svg">
	<g style="mix-blend-mode:hard-light" filter="url(#filter0_f_219_1243)">
		<circle cx="48.0085" cy="48.0085" r="28.8051" fill="#FF0000" fill-opacity="0.2" />
	</g>
	<g style="mix-blend-mode:hard-light" filter="url(#filter1_f_219_1243)">
		<circle cx="48.0084" cy="48.0084" r="22.9887" stroke="#FF5C00" stroke-width="2.03125" />
	</g>
	<g style="mix-blend-mode:hard-light" filter="url(#filter2_f_219_1243)">
		<circle cx="48.0084" cy="48.0084" r="22.6762" stroke="#FF0000" stroke-width="2.65625" />
	</g>
	<g style="mix-blend-mode:hard-light" filter="url(#filter3_ddi_219_1243)">
		<circle cx="48.0084" cy="48.0084" r="22.9887" stroke="#FF0000" stroke-opacity="0.2" stroke-width="2.03125" />
	</g>
	<g filter="url(#filter4_f_219_1243)">
		<circle cx="48.0084" cy="48.0084" r="23.3793" stroke="#FF9983" stroke-width="1.25" />
	</g>
	<g filter="url(#filter5_f_219_1243)">
		<circle cx="48.0084" cy="48.0084" r="23.6918" stroke="white" stroke-width="0.625" />
	</g>
	<g style="mix-blend-mode:hard-light" filter="url(#filter6_f_219_1243)">
		<ellipse cx="48.0088" cy="47.9933" rx="15.7469" ry="10.7447" fill="#FF0000" fill-opacity="0.2" />
	</g>
	<g style="mix-blend-mode:hard-light" filter="url(#filter7_f_219_1243)">
		<path d="M60.1403 41.9656L60.1408 41.9676C60.406 42.912 60.54 44.407 60.605 45.7017C60.6371 46.3416 60.6518 46.9201 60.6585 47.3387C60.6619 47.5478 60.6632 47.7168 60.6637 47.8332C60.664 47.8913 60.664 47.9363 60.664 47.9667L60.6639 48.0009L60.6639 48.0094L60.6639 48.0114L60.6639 48.0118L60.6639 48.0119V48.0143V48.0144V48.0148V48.0168L60.6639 48.0253L60.6638 48.0594C60.6636 48.0896 60.6634 48.1344 60.6629 48.1923C60.6618 48.3082 60.6597 48.4764 60.6555 48.6847C60.6472 49.1014 60.6304 49.6776 60.597 50.3152C60.5294 51.6037 60.3956 53.0953 60.14 54.043C59.8824 54.9727 59.1263 55.7145 58.1602 55.9683C57.693 56.0879 56.8353 56.1848 55.7739 56.259C54.724 56.3324 53.5118 56.3816 52.3595 56.4144C51.2079 56.4472 50.1199 56.4636 49.3195 56.4719C48.9193 56.476 48.5913 56.478 48.3635 56.479C48.2495 56.4795 48.1607 56.4798 48.1003 56.4799L48.0317 56.48L48.0143 56.4801L48.01 56.4801H48.0089H48.0086L48.0086 56.9471L48.0085 56.4801H48.0083H48.0072L48.0029 56.4801L47.9855 56.48L47.9171 56.4799C47.8569 56.4798 47.7683 56.4795 47.6546 56.479C47.4274 56.4779 47.1001 56.4758 46.7009 56.4715C45.9023 56.463 44.8163 56.4459 43.6663 56.4118C42.5154 56.3777 41.3041 56.3266 40.2536 56.2503C39.1904 56.173 38.3301 56.0723 37.8588 55.9479L37.8583 55.9478C36.8912 55.6937 36.1346 54.9518 35.877 54.0212C35.6217 53.0851 35.4878 51.594 35.4202 50.3021C35.3867 49.6632 35.37 49.0851 35.3616 48.6667C35.3574 48.4576 35.3553 48.2887 35.3543 48.1723C35.3538 48.1141 35.3535 48.0691 35.3534 48.0387L35.3533 48.0044L35.3533 47.9959L35.3533 47.9939L35.3533 47.9935L35.3533 47.9934V47.9934L35.3533 47.9933L35.3533 47.9929L35.3533 47.9908L35.3533 47.9824L35.3534 47.9483C35.3535 47.9181 35.3538 47.8732 35.3543 47.8153C35.3553 47.6994 35.3574 47.5312 35.3616 47.3229C35.37 46.9061 35.3867 46.33 35.4202 45.6923C35.4878 44.4037 35.6216 42.9119 35.8772 41.9645C36.1351 41.0335 36.9134 40.2716 37.8581 40.0176C38.3254 39.8982 39.1827 39.8015 40.2433 39.7273C41.2931 39.6538 42.5054 39.6047 43.6577 39.5719C44.8092 39.539 45.8973 39.5226 46.6977 39.5144C47.0978 39.5103 47.4258 39.5083 47.6537 39.5072C47.7676 39.5067 47.8565 39.5065 47.9168 39.5063L47.9854 39.5062L48.0028 39.5062L48.0072 39.5062L48.0083 39.5062L48.0085 39.5062L48.0086 39.0392L48.0086 39.5062L48.0089 39.5062L48.0099 39.5062L48.0143 39.5062L48.0317 39.5062L48.1003 39.5063C48.1606 39.5065 48.2495 39.5067 48.3634 39.5073C48.5912 39.5083 48.9192 39.5105 49.3193 39.5147C50.1196 39.5233 51.2076 39.5403 52.359 39.5745C53.5111 39.6086 54.7231 39.6597 55.7726 39.736C56.8351 39.8133 57.692 39.914 58.1572 40.0381L58.1588 40.0385C59.1264 40.2926 59.8834 41.035 60.1403 41.9656ZM45.6213 43.7514L44.9257 43.361V44.1587V51.8276V52.6253L45.6213 52.2348L52.4529 48.4001L53.1785 47.9929L52.4529 47.5856L45.6213 43.7514Z" stroke="#FF5C00" stroke-width="0.934054" />
	</g>
	<g style="mix-blend-mode:hard-light" filter="url(#filter8_f_219_1243)">
		<path d="M60.0018 42.0039L60.0025 42.0065C60.2628 42.9335 60.3965 44.4138 60.4615 45.7089C60.4935 46.3468 60.5082 46.9236 60.5148 47.341C60.5182 47.5495 60.5195 47.7179 60.52 47.8338C60.5203 47.8917 60.5203 47.9365 60.5203 47.9666L60.5202 48.0005L60.5202 48.0088L60.5202 48.0107L60.5202 48.0111L60.5202 48.0111V48.0143V48.0143V48.0143V48.0147L60.5202 48.0167L60.5202 48.025L60.5201 48.0588C60.5199 48.0888 60.5197 48.1334 60.5192 48.191C60.5181 48.3064 60.516 48.4741 60.5119 48.6818C60.5035 49.0974 60.4868 49.672 60.4535 50.3077C60.3859 51.5964 60.2525 53.0739 60.0014 54.0052C59.7577 54.8839 59.0417 55.5881 58.124 55.8293C57.6711 55.9451 56.826 56.0414 55.7638 56.1157C54.7168 56.1889 53.5068 56.238 52.3554 56.2708C51.205 56.3036 50.1178 56.32 49.318 56.3282C48.9182 56.3323 48.5904 56.3343 48.3628 56.3353C48.249 56.3358 48.1603 56.3361 48.1 56.3362L48.0316 56.3363L48.0142 56.3364L48.0099 56.3364H48.0089H48.0086L48.0086 56.9471L48.0085 56.3364H48.0083H48.0072L48.003 56.3364L47.9857 56.3363L47.9174 56.3362C47.8574 56.3361 47.7688 56.3358 47.6553 56.3353C47.4283 56.3342 47.1013 56.3321 46.7024 56.3278C45.9044 56.3193 44.8194 56.3023 43.6705 56.2682C42.5207 56.2341 41.3116 56.1831 40.264 56.1069C39.1998 56.0296 38.3521 55.9295 37.8955 55.809L37.8948 55.8088C36.9759 55.5674 36.2592 54.8629 36.0156 53.9831C35.7649 53.0637 35.6313 51.5869 35.5637 50.2946C35.5303 49.6576 35.5136 49.0811 35.5053 48.6639C35.5011 48.4553 35.499 48.2869 35.498 48.171C35.4975 48.1131 35.4972 48.0682 35.4971 48.0381L35.497 48.0041L35.497 47.9958L35.497 47.9938L35.497 47.9934V47.9933L35.497 47.9929L35.497 47.991L35.497 47.9827L35.4971 47.9489C35.4972 47.9189 35.4975 47.8743 35.498 47.8166C35.499 47.7012 35.5011 47.5335 35.5053 47.3258C35.5136 46.9101 35.5303 46.3356 35.5637 45.6998C35.6313 44.411 35.7647 42.9334 36.0158 42.0024C36.2598 41.1221 36.9983 40.3979 37.8945 40.1567C38.3477 40.041 39.1922 39.9448 40.2533 39.8706C41.3003 39.7974 42.5104 39.7483 43.6618 39.7155C44.8122 39.6827 45.8993 39.6663 46.6992 39.6581C47.099 39.654 47.4267 39.652 47.6543 39.6509C47.7681 39.6504 47.8569 39.6502 47.9171 39.65L47.9856 39.6499L48.0029 39.6499L48.0072 39.6499L48.0083 39.6499H48.0085L48.0086 39.0392L48.0086 39.6499H48.0089L48.0099 39.6499L48.0142 39.6499L48.0315 39.6499L48.1 39.65C48.1602 39.6502 48.2489 39.6504 48.3627 39.651C48.5903 39.652 48.918 39.6542 49.3177 39.6584C50.1175 39.667 51.2045 39.684 52.3547 39.7181C53.5059 39.7522 54.7156 39.8032 55.7622 39.8793C56.8258 39.9567 57.6698 40.0568 58.1202 40.1769L58.1223 40.1775C59.0418 40.419 59.7589 41.124 60.0018 42.0039ZM45.6916 43.6261L44.782 43.1156V44.1587V51.8276V52.8707L45.6916 52.3601L52.5233 48.5255L53.4721 47.9929L52.5232 47.4603L45.6916 43.6261Z" stroke="#FF0000" stroke-width="1.22145" />
	</g>
	<g style="mix-blend-mode:hard-light" filter="url(#filter9_ddi_219_1243)">
		<path d="M60.1403 41.9656L60.1408 41.9676C60.406 42.912 60.54 44.407 60.605 45.7017C60.6371 46.3416 60.6518 46.9201 60.6585 47.3387C60.6619 47.5478 60.6632 47.7168 60.6637 47.8332C60.664 47.8913 60.664 47.9363 60.664 47.9667L60.6639 48.0009L60.6639 48.0094L60.6639 48.0114L60.6639 48.0118L60.6639 48.0119V48.0143V48.0144V48.0148V48.0168L60.6639 48.0253L60.6638 48.0594C60.6636 48.0896 60.6634 48.1344 60.6629 48.1923C60.6618 48.3082 60.6597 48.4764 60.6555 48.6847C60.6472 49.1014 60.6304 49.6776 60.597 50.3152C60.5294 51.6037 60.3956 53.0953 60.14 54.043C59.8824 54.9727 59.1263 55.7145 58.1602 55.9683C57.693 56.0879 56.8353 56.1848 55.7739 56.259C54.724 56.3324 53.5118 56.3816 52.3595 56.4144C51.2079 56.4472 50.1199 56.4636 49.3195 56.4719C48.9193 56.476 48.5913 56.478 48.3635 56.479C48.2495 56.4795 48.1607 56.4798 48.1003 56.4799L48.0317 56.48L48.0143 56.4801L48.01 56.4801H48.0089H48.0086L48.0086 56.9471L48.0085 56.4801H48.0083H48.0072L48.0029 56.4801L47.9855 56.48L47.9171 56.4799C47.8569 56.4798 47.7683 56.4795 47.6546 56.479C47.4274 56.4779 47.1001 56.4758 46.7009 56.4715C45.9023 56.463 44.8163 56.4459 43.6663 56.4118C42.5154 56.3777 41.3041 56.3266 40.2536 56.2503C39.1904 56.173 38.3301 56.0723 37.8588 55.9479L37.8583 55.9478C36.8912 55.6937 36.1346 54.9518 35.877 54.0212C35.6217 53.0851 35.4878 51.594 35.4202 50.3021C35.3867 49.6632 35.37 49.0851 35.3616 48.6667C35.3574 48.4576 35.3553 48.2887 35.3543 48.1723C35.3538 48.1141 35.3535 48.0691 35.3534 48.0387L35.3533 48.0044L35.3533 47.9959L35.3533 47.9939L35.3533 47.9935L35.3533 47.9934V47.9934L35.3533 47.9933L35.3533 47.9929L35.3533 47.9908L35.3533 47.9824L35.3534 47.9483C35.3535 47.9181 35.3538 47.8732 35.3543 47.8153C35.3553 47.6994 35.3574 47.5312 35.3616 47.3229C35.37 46.9061 35.3867 46.33 35.4202 45.6923C35.4878 44.4037 35.6216 42.9119 35.8772 41.9645C36.1351 41.0335 36.9134 40.2716 37.8581 40.0176C38.3254 39.8982 39.1827 39.8015 40.2433 39.7273C41.2931 39.6538 42.5054 39.6047 43.6577 39.5719C44.8092 39.539 45.8973 39.5226 46.6977 39.5144C47.0978 39.5103 47.4258 39.5083 47.6537 39.5072C47.7676 39.5067 47.8565 39.5065 47.9168 39.5063L47.9854 39.5062L48.0028 39.5062L48.0072 39.5062L48.0083 39.5062L48.0085 39.5062L48.0086 39.0392L48.0086 39.5062L48.0089 39.5062L48.0099 39.5062L48.0143 39.5062L48.0317 39.5062L48.1003 39.5063C48.1606 39.5065 48.2495 39.5067 48.3634 39.5073C48.5912 39.5083 48.9192 39.5105 49.3193 39.5147C50.1196 39.5233 51.2076 39.5403 52.359 39.5745C53.5111 39.6086 54.7231 39.6597 55.7726 39.736C56.8351 39.8133 57.692 39.914 58.1572 40.0381L58.1588 40.0385C59.1264 40.2926 59.8834 41.035 60.1403 41.9656ZM45.6213 43.7514L44.9257 43.361V44.1587V51.8276V52.6253L45.6213 52.2348L52.4529 48.4001L53.1785 47.9929L52.4529 47.5856L45.6213 43.7514Z" stroke="#FF0000" stroke-opacity="0.2" stroke-width="0.934054" />
	</g>
	<g filter="url(#filter10_f_219_1243)">
		<path d="M60.3134 41.9178L60.3138 41.9191C60.585 42.8851 60.7194 44.3987 60.7844 45.6927C60.8166 46.3352 60.8314 46.9158 60.8381 47.3358C60.8415 47.5457 60.8428 47.7154 60.8433 47.8324C60.8436 47.8909 60.8436 47.9362 60.8436 47.9668L60.8436 48.0014L60.8435 48.0101L60.8435 48.0122L60.8435 48.0127V48.0128L61.1309 48.0143L60.8435 48.0128V48.0143V48.0144V48.0149L60.8435 48.017L60.8435 48.0257L60.8434 48.0602C60.8433 48.0906 60.843 48.1357 60.8425 48.1939C60.8414 48.3104 60.8393 48.4793 60.8351 48.6883C60.8267 49.1064 60.8099 49.6846 60.7764 50.3246C60.7088 51.6128 60.5745 53.1223 60.3133 54.0904C60.0383 55.0837 59.2322 55.8726 58.2055 56.1422C57.7206 56.2664 56.8471 56.364 55.7864 56.4382C54.733 56.5119 53.518 56.5611 52.3646 56.594C51.2116 56.6268 50.1224 56.6433 49.3213 56.6515C48.9208 56.6556 48.5924 56.6576 48.3643 56.6587C48.2502 56.6592 48.1612 56.6594 48.1007 56.6596L48.0319 56.6597L48.0144 56.6597L48.01 56.6597H48.0089H48.0087L48.0086 56.9471L48.0085 56.6597H48.0082H48.0072L48.0028 56.6597L47.9853 56.6597L47.9167 56.6596C47.8564 56.6594 47.7676 56.6592 47.6538 56.6586C47.4262 56.6576 47.0986 56.6554 46.699 56.6511C45.8996 56.6426 44.8125 56.6255 43.6609 56.5914C42.5089 56.5572 41.2947 56.506 40.2406 56.4294C39.1786 56.3523 38.3026 56.2508 37.813 56.1216L37.8127 56.1215C36.7853 55.8516 35.9788 55.0629 35.7038 54.0688C35.4428 53.1119 35.3084 51.6028 35.2408 50.3115C35.2072 49.6702 35.1904 49.0901 35.182 48.6703C35.1778 48.4605 35.1757 48.2909 35.1747 48.1739C35.1742 48.1154 35.1739 48.0701 35.1738 48.0395L35.1736 48.0048L35.1736 47.9961L35.1736 47.994L35.1736 47.9935L35.1736 47.9934L34.8862 47.9934L35.1736 47.9934L35.1736 47.9933L35.1736 47.9928L35.1736 47.9907L35.1736 47.982L35.1738 47.9475C35.1739 47.917 35.1742 47.8719 35.1747 47.8137C35.1757 47.6972 35.1778 47.5283 35.182 47.3193C35.1904 46.9011 35.2072 46.323 35.2408 45.6829C35.3084 44.3946 35.4427 42.885 35.7039 41.9172C35.9791 40.9228 36.8072 40.1137 37.8125 39.8439C38.2976 39.7198 39.1707 39.6222 40.2307 39.5481C41.2841 39.4744 42.4991 39.4252 43.6525 39.3923C44.8055 39.3595 45.8947 39.343 46.6958 39.3348C47.0963 39.3307 47.4247 39.3286 47.6529 39.3276C47.7669 39.3271 47.856 39.3268 47.9164 39.3267L47.9852 39.3266L48.0028 39.3266L48.0071 39.3266L48.0082 39.3266L48.0085 39.3266L48.0086 39.0392L48.0086 39.3266L48.0089 39.3266L48.01 39.3266L48.0144 39.3266L48.0319 39.3266L48.1007 39.3267C48.1611 39.3269 48.2502 39.3271 48.3642 39.3277C48.5924 39.3287 48.9207 39.3309 49.3212 39.3351C50.1223 39.3437 51.2114 39.3608 52.3643 39.3949C53.5176 39.4291 54.7325 39.4803 55.7856 39.5568C56.8468 39.634 57.7197 39.7355 58.2035 39.8645L58.2045 39.8648C59.2321 40.1347 60.0391 40.9237 60.3134 41.9178ZM45.5333 43.9081L45.1053 43.6678V44.1587V51.8276V52.3185L45.5334 52.0782L52.365 48.2435L52.8115 47.9929L52.365 47.7423L45.5333 43.9081Z" stroke="#FF9983" stroke-width="0.574802" />
	</g>
	<g filter="url(#filter11_f_219_1243)">
		<path d="M60.452 41.8796L60.4521 41.8802C60.7282 42.8635 60.863 44.3919 60.9279 45.6855C60.9602 46.33 60.9751 46.9123 60.9818 47.3335C60.9852 47.5441 60.9865 47.7143 60.987 47.8318C60.9873 47.8905 60.9873 47.936 60.9873 47.9669L60.9873 48.0018L60.9872 48.0107L60.9872 48.0129L60.9872 48.0134V48.0135L61.1309 48.0143L60.9872 48.0136V48.0143V48.0144L60.9872 48.015L60.9872 48.0172L60.9872 48.026L60.9871 48.0608C60.987 48.0914 60.9867 48.1368 60.9862 48.1952C60.9851 48.3122 60.983 48.4816 60.9788 48.6912C60.9704 49.1104 60.9535 49.6902 60.9199 50.3321C60.8523 51.6202 60.7176 53.144 60.4518 54.1285C60.1628 55.1727 59.3167 55.9992 58.2414 56.2813C57.7422 56.4092 56.8562 56.5074 55.7964 56.5815C54.7402 56.6554 53.523 56.7047 52.3687 56.7376C51.2146 56.7705 50.1245 56.7869 49.3228 56.7952C48.922 56.7993 48.5933 56.8013 48.3649 56.8024C48.2507 56.8029 48.1616 56.8031 48.101 56.8033L48.0321 56.8034L48.0145 56.8034L48.01 56.8034L48.0089 56.8034H48.0087L48.0086 56.9471L48.0085 56.8034H48.0082L48.0071 56.8034L48.0027 56.8034L47.9852 56.8034L47.9164 56.8033C47.856 56.8031 47.7671 56.8029 47.6531 56.8023C47.4253 56.8012 47.0974 56.7991 46.6974 56.7948C45.8975 56.7863 44.8094 56.7692 43.6567 56.735C42.5037 56.7008 41.2872 56.6495 40.2302 56.5727C39.1692 56.4957 38.2805 56.3936 37.7763 56.2605L37.7762 56.2605C36.7006 55.978 35.8542 55.1517 35.5652 54.1068C35.2996 53.1333 35.1649 51.6098 35.0973 50.319C35.0636 49.6758 35.0468 49.0941 35.0383 48.6732C35.0341 48.4628 35.032 48.2926 35.031 48.1752C35.0305 48.1165 35.0302 48.0709 35.0301 48.0401L35.0299 48.0051L35.0299 47.9963L35.0299 47.9941L35.0299 47.9935L35.0299 47.9934L34.8862 47.9934L35.0299 47.9933L35.0299 47.9932L35.0299 47.9927L35.0299 47.9905L35.0299 47.9817L35.0301 47.9469C35.0302 47.9162 35.0305 47.8709 35.031 47.8124C35.032 47.6955 35.0341 47.526 35.0383 47.3164C35.0468 46.8971 35.0636 46.3174 35.0973 45.6754C35.1649 44.3873 35.2996 42.8635 35.5653 41.8793C35.8543 40.8343 36.7222 39.9874 37.7761 39.7049C38.2754 39.577 39.1612 39.4788 40.2207 39.4047C41.2769 39.3309 42.4941 39.2816 43.6484 39.2487C44.8026 39.2158 45.8927 39.1993 46.6944 39.1911C47.0952 39.187 47.4238 39.1849 47.6522 39.1839C47.7664 39.1834 47.8556 39.1831 47.9161 39.183L47.9851 39.1829L48.0027 39.1829L48.0071 39.1829L48.0082 39.1829L48.0085 39.1829L48.0086 39.0392L48.0087 39.1829L48.0089 39.1829L48.01 39.1829L48.0145 39.1829L48.032 39.1829L48.101 39.183C48.1616 39.1832 48.2507 39.1834 48.3649 39.184C48.5933 39.185 48.9219 39.1872 49.3227 39.1914C50.1244 39.2 51.2145 39.2171 52.3685 39.2513C53.5228 39.2855 54.74 39.3367 55.796 39.4135C56.8561 39.4906 57.7418 39.5927 58.2405 39.7256L58.241 39.7258C59.3167 40.0083 60.1636 40.8347 60.452 41.8796ZM45.463 44.0334L45.249 43.9133V44.1587V51.8276V52.073L45.463 51.9529L52.2947 48.1182L52.5179 47.9929L52.2947 47.8676L45.463 44.0334Z" stroke="white" stroke-width="0.287401" />
	</g>
	<defs>
		<filter id="filter0_f_219_1243" x="9.82837" y="9.82837" width="76.3604" height="76.3604" filterUnits="userSpaceOnUse" color-interpolation-filters="sRGB">
			<feFlood flood-opacity="0" result="BackgroundImageFix" />
			<feBlend mode="normal" in="SourceGraphic" in2="BackgroundImageFix" result="shape" />
			<feGaussianBlur stdDeviation="4.6875" result="effect1_foregroundBlur_219_1243" />
		</filter>
		<filter id="filter1_f_219_1243" x="14.6292" y="14.6292" width="66.7585" height="66.7585" filterUnits="userSpaceOnUse" color-interpolation-filters="sRGB">
			<feFlood flood-opacity="0" result="BackgroundImageFix" />
			<feBlend mode="normal" in="SourceGraphic" in2="BackgroundImageFix" result="shape" />
			<feGaussianBlur stdDeviation="4.6875" result="effect1_foregroundBlur_219_1243" />
		</filter>
		<filter id="filter2_f_219_1243" x="20.8792" y="20.8792" width="54.2585" height="54.2585" filterUnits="userSpaceOnUse" color-interpolation-filters="sRGB">
			<feFlood flood-opacity="0" result="BackgroundImageFix" />
			<feBlend mode="normal" in="SourceGraphic" in2="BackgroundImageFix" result="shape" />
			<feGaussianBlur stdDeviation="1.5625" result="effect1_foregroundBlur_219_1243" />
		</filter>
		<filter id="filter3_ddi_219_1243" x="19.9417" y="23.0667" width="56.1335" height="56.1335" filterUnits="userSpaceOnUse" color-interpolation-filters="sRGB">
			<feFlood flood-opacity="0" result="BackgroundImageFix" />
			<feColorMatrix in="SourceAlpha" type="matrix" values="0 0 0 0 0 0 0 0 0 0 0 0 0 0 0 0 0 0 127 0" result="hardAlpha" />
			<feOffset dy="2.03125" />
			<feGaussianBlur stdDeviation="0.78125" />
			<feColorMatrix type="matrix" values="0 0 0 0 0.15 0 0 0 0 0 0 0 0 0 0 0 0 0 0.7 0" />
			<feBlend mode="multiply" in2="BackgroundImageFix" result="effect1_dropShadow_219_1243" />
			<feColorMatrix in="SourceAlpha" type="matrix" values="0 0 0 0 0 0 0 0 0 0 0 0 0 0 0 0 0 0 127 0" result="hardAlpha" />
			<feOffset dy="3.125" />
			<feGaussianBlur stdDeviation="2.03125" />
			<feColorMatrix type="matrix" values="0 0 0 0 0.8 0 0 0 0 0.19 0 0 0 0 0.19 0 0 0 1 0" />
			<feBlend mode="color-dodge" in2="effect1_dropShadow_219_1243" result="effect2_dropShadow_219_1243" />
			<feBlend mode="normal" in="SourceGraphic" in2="effect2_dropShadow_219_1243" result="shape" />
			<feColorMatrix in="SourceAlpha" type="matrix" values="0 0 0 0 0 0 0 0 0 0 0 0 0 0 0 0 0 0 127 0" result="hardAlpha" />
			<feOffset dx="-0.203125" dy="0.40625" />
			<feGaussianBlur stdDeviation="0.101562" />
			<feComposite in2="hardAlpha" operator="arithmetic" k2="-1" k3="1" />
			<feColorMatrix type="matrix" values="0 0 0 0 1 0 0 0 0 1 0 0 0 0 1 0 0 0 0.5 0" />
			<feBlend mode="normal" in2="shape" result="effect3_innerShadow_219_1243" />
		</filter>
		<filter id="filter4_f_219_1243" x="23.6917" y="23.6917" width="48.6335" height="48.6335" filterUnits="userSpaceOnUse" color-interpolation-filters="sRGB">
			<feFlood flood-opacity="0" result="BackgroundImageFix" />
			<feBlend mode="normal" in="SourceGraphic" in2="BackgroundImageFix" result="shape" />
			<feGaussianBlur stdDeviation="0.15625" result="effect1_foregroundBlur_219_1243" />
		</filter>
		<filter id="filter5_f_219_1243" x="23.7958" y="23.7958" width="48.4252" height="48.4252" filterUnits="userSpaceOnUse" color-interpolation-filters="sRGB">
			<feFlood flood-opacity="0" result="BackgroundImageFix" />
			<feBlend mode="normal" in="SourceGraphic" in2="BackgroundImageFix" result="shape" />
			<feGaussianBlur stdDeviation="0.104167" result="effect1_foregroundBlur_219_1243" />
		</filter>
		<filter id="filter6_f_219_1243" x="27.9509" y="32.9375" width="40.1157" height="30.1115" filterUnits="userSpaceOnUse" color-interpolation-filters="sRGB">
			<feFlood flood-opacity="0" result="BackgroundImageFix" />
			<feBlend mode="normal" in="SourceGraphic" in2="BackgroundImageFix" result="shape" />
			<feGaussianBlur stdDeviation="2.15551" result="effect1_foregroundBlur_219_1243" />
		</filter>
		<filter id="filter7_f_219_1243" x="30.5752" y="34.7282" width="34.8669" height="26.53" filterUnits="userSpaceOnUse" color-interpolation-filters="sRGB">
			<feFlood flood-opacity="0" result="BackgroundImageFix" />
			<feBlend mode="normal" in="SourceGraphic" in2="BackgroundImageFix" result="shape" />
			<feGaussianBlur stdDeviation="2.15551" result="effect1_foregroundBlur_219_1243" />
		</filter>
		<filter id="filter8_f_219_1243" x="33.4492" y="37.6022" width="29.1189" height="20.782" filterUnits="userSpaceOnUse" color-interpolation-filters="sRGB">
			<feFlood flood-opacity="0" result="BackgroundImageFix" />
			<feBlend mode="normal" in="SourceGraphic" in2="BackgroundImageFix" result="shape" />
			<feGaussianBlur stdDeviation="0.718503" result="effect1_foregroundBlur_219_1243" />
		</filter>
		<filter id="filter9_ddi_219_1243" x="33.0181" y="38.6081" width="29.9811" height="21.6442" filterUnits="userSpaceOnUse" color-interpolation-filters="sRGB">
			<feFlood flood-opacity="0" result="BackgroundImageFix" />
			<feColorMatrix in="SourceAlpha" type="matrix" values="0 0 0 0 0 0 0 0 0 0 0 0 0 0 0 0 0 0 127 0" result="hardAlpha" />
			<feOffset dy="0.934054" />
			<feGaussianBlur stdDeviation="0.359251" />
			<feColorMatrix type="matrix" values="0 0 0 0 0.15 0 0 0 0 0 0 0 0 0 0 0 0 0 0.7 0" />
			<feBlend mode="multiply" in2="BackgroundImageFix" result="effect1_dropShadow_219_1243" />
			<feColorMatrix in="SourceAlpha" type="matrix" values="0 0 0 0 0 0 0 0 0 0 0 0 0 0 0 0 0 0 127 0" result="hardAlpha" />
			<feOffset dy="1.43701" />
			<feGaussianBlur stdDeviation="0.934054" />
			<feColorMatrix type="matrix" values="0 0 0 0 0.8 0 0 0 0 0.19 0 0 0 0 0.19 0 0 0 1 0" />
			<feBlend mode="color-dodge" in2="effect1_dropShadow_219_1243" result="effect2_dropShadow_219_1243" />
			<feBlend mode="normal" in="SourceGraphic" in2="effect2_dropShadow_219_1243" result="shape" />
			<feColorMatrix in="SourceAlpha" type="matrix" values="0 0 0 0 0 0 0 0 0 0 0 0 0 0 0 0 0 0 127 0" result="hardAlpha" />
			<feOffset dx="-0.0934054" dy="0.186811" />
			<feGaussianBlur stdDeviation="0.0467027" />
			<feComposite in2="hardAlpha" operator="arithmetic" k2="-1" k3="1" />
			<feColorMatrix type="matrix" values="0 0 0 0 1 0 0 0 0 1 0 0 0 0 1 0 0 0 0.5 0" />
			<feBlend mode="normal" in2="shape" result="effect3_innerShadow_219_1243" />
		</filter>
		<filter id="filter10_f_219_1243" x="34.7425" y="38.8955" width="26.5323" height="18.1954" filterUnits="userSpaceOnUse" color-interpolation-filters="sRGB">
			<feFlood flood-opacity="0" result="BackgroundImageFix" />
			<feBlend mode="normal" in="SourceGraphic" in2="BackgroundImageFix" result="shape" />
			<feGaussianBlur stdDeviation="0.0718503" result="effect1_foregroundBlur_219_1243" />
		</filter>
		<filter id="filter11_f_219_1243" x="34.7904" y="38.9434" width="26.4365" height="18.0996" filterUnits="userSpaceOnUse" color-interpolation-filters="sRGB">
			<feFlood flood-opacity="0" result="BackgroundImageFix" />
			<feBlend mode="normal" in="SourceGraphic" in2="BackgroundImageFix" result="shape" />
			<feGaussianBlur stdDeviation="0.0479002" result="effect1_foregroundBlur_219_1243" />
		</filter>
	</defs>
</svg>
